<svg fill="none" height="24" viewBox="0 0 24 24" width="24" xmlns="http://www.w3.org/2000/svg"><g stroke="#323232" stroke-width="2"><path d="m15 10c0 1.6569-1.3431 3-3 3s-3-1.3431-3-3c0-1.65685 1.3431-3 3-3s3 1.34315 3 3z"/><g stroke-linecap="round"><path d="m6.89276 17.3151c.93829-.9801 2.52022-1.3151 5.10724-1.3151 2.6216 0 4.2111.3191 5.1445 1.3151"/><path d="m16.2838 5c.8582.33341 1.8904.58053 2.7187.7457.8808.17565 1.5971.87044 1.6587 1.76651.4122 5.99359-2.0872 10.54659-7.9181 13.17109-.4719.2124-1.0144.2124-1.4863 0-5.82633-2.6225-8.32634-7.1704-7.91895-13.15707.06143-.90268.78689-1.60037 1.67637-1.766.88645-.16507 2.00159-.4169 2.88533-.76023 1.43388-.55706 3.20495-1.50684 3.85035-1.86124.1563-.08586.3455-.08889.5043-.00754l.0147.00754c.6921.3544 2.5811 1.30418 4.0149 1.86124z" stroke-linejoin="round"/></g></g></svg>