<?xml version="1.0" encoding="UTF-8"?>
<svg version="1.1" xmlns="http://www.w3.org/2000/svg" width="512" height="512">
<path d="M0 0 C1.9661512 2.61389197 2.18029832 4.52029715 2.33984375 7.78125 C1.34375 11.4296875 1.34375 11.4296875 -0.09765625 15.15625 C-0.46213867 16.11724609 -0.46213867 16.11724609 -0.83398438 17.09765625 C-1.43003051 18.66373824 -2.0433501 20.22322755 -2.66015625 21.78125 C-2.13550781 21.905 -1.61085938 22.02875 -1.0703125 22.15625 C9.43635138 24.95336518 28.55439975 31.05329998 34.546875 40.73046875 C35.9508183 44.36135659 35.7382216 47.2497534 34.33984375 50.78125 C32.09713558 53.69500471 29.6549337 56.28418368 27.09375 58.921875 C24.4875164 61.6279218 22.12466405 64.41270454 19.77734375 67.34375 C16.20122061 71.77462314 12.45996671 76.00397225 8.625 80.2109375 C4.71320163 84.61087481 1.02905569 89.19371931 -2.66015625 93.78125 C-1.93425293 93.79583252 -1.20834961 93.81041504 -0.46044922 93.82543945 C2.84850107 93.90019859 6.15647327 93.9967679 9.46484375 94.09375 C10.60695313 94.11630859 11.7490625 94.13886719 12.92578125 94.16210938 C23.55594024 94.50202725 23.55594024 94.50202725 28.33984375 97.78125 C30.51206754 100.42569635 30.33877696 101.81112018 30.21484375 105.28125 C29.21620087 109.27582154 28.62534268 110.37119749 25.33984375 112.78125 C22.42886173 113.40297003 19.55943644 113.47707833 16.58984375 113.53125 C15.79707031 113.56089844 15.00429688 113.59054688 14.1875 113.62109375 C12.23882281 113.69152787 10.2893288 113.73868482 8.33984375 113.78125 C9.19964844 114.24273437 10.05945313 114.70421875 10.9453125 115.1796875 C43.80498414 133.15685375 65.57280265 162.09274298 76.33984375 197.78125 C78.64336821 206.21951395 80.56059962 214.73232463 80.21704102 223.51098633 C79.86014817 234.39501302 79.86014817 234.39501302 84.07473755 244.11923218 C89.63096236 249.42179967 96.3091558 253.04462954 102.96484375 256.78125 C104.99066909 257.99602329 107.01175465 259.21873511 109.02807617 260.44921875 C112.98133067 262.8522279 116.95431218 265.21524377 120.94775391 267.55078125 C125.56004704 270.27506891 129.99231918 273.17052927 134.3515625 276.28125 C135.19527405 276.87873047 135.19527405 276.87873047 136.05603027 277.48828125 C138.52912895 279.2465305 140.98356369 281.02646836 143.42236328 282.83203125 C147.53191539 285.94824462 147.53191539 285.94824462 152.40014648 286.49682617 C154.55621432 285.6485809 154.55621432 285.6485809 157.33984375 283.78125 C164.87386609 281.65626934 172.37134706 282.28519064 179.33984375 285.78125 C186.74504159 290.63867881 190.47197221 296.14698287 192.33984375 304.78125 C193.54412412 312.41258453 191.23528032 319.11859869 187.20703125 325.60546875 C184.19867855 329.56015756 180.67443889 331.5714564 176.33984375 333.78125 C178.81347191 335.43033544 180.81421506 336.43639453 183.52734375 337.53125 C195.02657643 342.59016568 202.73645535 351.1560264 207.33984375 362.78125 C209.17354383 368.96859732 209.65996314 374.57636197 209.67578125 381.01171875 C209.68243805 381.96516678 209.68909485 382.91861481 209.69595337 383.9009552 C209.70602343 385.90359583 209.71077215 387.90626963 209.71044922 389.90893555 C209.71484618 392.97044537 209.75129039 396.03053922 209.7890625 399.09179688 C209.79492712 401.04426593 209.79889889 402.99674179 209.80078125 404.94921875 C209.81515228 405.86076218 209.82952332 406.7723056 209.84432983 407.71147156 C209.81426874 411.88708572 209.69582288 414.19120822 207.49853516 417.83325195 C203.7452238 421.22023129 200.33414281 420.91596366 195.46923828 420.94238281 C194.42724274 420.94983017 194.42724274 420.94983017 193.36419678 420.95742798 C191.06700651 420.97202829 188.76988529 420.97884784 186.47265625 420.984375 C184.87466429 420.99012799 183.27667235 420.99588571 181.67868042 421.00164795 C178.32793863 421.01215172 174.97722078 421.01799854 171.62646484 421.02148438 C167.33682659 421.02696933 163.04750571 421.0509998 158.757967 421.07945633 C155.45680826 421.09809645 152.1557258 421.10328902 148.85451889 421.10482025 C147.2732965 421.10784397 145.69207536 421.11586304 144.11090469 421.12900543 C141.89677137 421.14609597 139.68341114 421.14417884 137.46923828 421.13769531 C136.21031769 421.14134094 134.95139709 421.14498657 133.65432739 421.14874268 C129.08751325 420.64239812 126.54249426 418.98390051 123.33984375 415.78125 C123.07241821 413.83718872 123.07241821 413.83718872 123.04931641 411.43017578 C123.0365567 410.5280838 123.023797 409.62599182 123.01065063 408.69656372 C123.00731216 407.22641312 123.00731216 407.22641312 123.00390625 405.7265625 C122.99724945 404.71463837 122.99059265 403.70271423 122.98373413 402.66012573 C122.97358809 400.50976379 122.96891771 398.35937023 122.96923828 396.20898438 C122.96490712 392.95387821 122.92872539 389.70017471 122.890625 386.4453125 C122.81137341 371.97740168 123.25040106 360.04331557 133.33984375 348.78125 C133.84128906 348.17667969 134.34273438 347.57210938 134.859375 346.94921875 C139.74799132 341.48966913 145.75327437 338.78190149 152.33984375 335.78125 C153.67625526 335.12077555 155.01098011 334.45678211 156.33984375 333.78125 C155.82035156 333.48992187 155.30085938 333.19859375 154.765625 332.8984375 C148.24829831 329.06755046 143.89860018 325.042641 140.81103516 317.92285156 C140.33984375 315.78125 140.33984375 315.78125 140.72412109 313.06933594 C141.15196787 308.98784394 140.86865245 306.6275426 139.33984375 302.78125 C133.57366798 296.66438658 125.79661988 292.49567054 118.71484375 288.09375 C116.77216402 286.84449091 114.83202892 285.59126539 112.89453125 284.33398438 C109.13906296 281.90437195 105.36955741 279.49968854 101.58496094 277.11572266 C96.2170128 273.72484119 90.93869444 270.20968861 85.71005249 266.60798645 C82.79036918 264.44973142 82.79036918 264.44973142 79.33984375 263.78125 C79.13230469 264.56886719 78.92476563 265.35648437 78.7109375 266.16796875 C73.69682508 283.89568838 65.03082693 296.98897375 48.75 306.1484375 C43.69989599 308.56647126 38.52308946 310.66681734 33.33984375 312.78125 C33.49130859 313.81531982 33.64277344 314.84938965 33.79882812 315.91479492 C34.36149457 319.76274849 34.91947914 323.61136902 35.47607422 327.46020508 C35.71731592 329.12380139 35.95981562 330.78721579 36.20361328 332.45043945 C36.55444379 334.84539469 36.90069909 337.24097429 37.24609375 339.63671875 C37.35546265 340.3764946 37.46483154 341.11627045 37.57751465 341.87846375 C38.10112111 345.54173358 38.46694508 349.07942378 38.33984375 352.78125 C39.18546875 352.966875 40.03109375 353.1525 40.90234375 353.34375 C46.8638559 355.83674599 50.80477689 360.20270298 53.77734375 365.90625 C56.62276059 373.12449359 56.62276059 381.43800641 53.77734375 388.65625 C50.32174015 395.29882371 45.25521548 399.91390074 38.33984375 402.78125 C39.02949219 403.00039063 39.71914063 403.21953125 40.4296875 403.4453125 C52.17028887 407.40716152 61.82797012 413.51881144 67.9140625 424.6640625 C70.54209212 430.31169062 72.44844767 435.22407811 72.50097656 441.48632812 C72.51058411 442.41409058 72.52019165 443.34185303 72.53009033 444.29772949 C72.53646515 445.79004089 72.53646515 445.79004089 72.54296875 447.3125 C72.54866882 448.34056763 72.5543689 449.36863525 72.5602417 450.42785645 C72.56967939 452.59984308 72.57622079 454.77184395 72.58007812 456.94384766 C72.58980734 460.26880685 72.62085224 463.59315394 72.65234375 466.91796875 C72.65887177 469.02864216 72.66412303 471.13931999 72.66796875 473.25 C72.68031555 474.24487427 72.69266235 475.23974854 72.7053833 476.26477051 C72.7023822 477.19253296 72.6993811 478.12029541 72.69628906 479.07617188 C72.69993469 479.89017456 72.70358032 480.70417725 72.70733643 481.54284668 C72.2448986 484.35956234 71.28471345 485.7158373 69.33984375 487.78125 C65.818163 488.95514358 63.00334888 488.92994427 59.28564453 488.95825195 C58.57147369 488.96482315 57.85730286 488.97139435 57.12149048 488.97816467 C54.75937797 488.99786689 52.39732889 489.00955225 50.03515625 489.01953125 C48.82402979 489.02564454 48.82402979 489.02564454 47.58843613 489.03188133 C43.31628425 489.05272717 39.04416437 489.0670363 34.77197266 489.07641602 C30.36117788 489.08748821 25.95088652 489.12190127 21.54026985 489.16158772 C18.14646468 489.18773512 14.75277995 489.19610607 11.3588829 489.19969749 C9.73298613 489.20456694 8.10709485 489.21619119 6.48129654 489.23473549 C4.20473542 489.25909225 1.92948364 489.25816921 -0.34716797 489.2512207 C-1.64161835 489.25708694 -2.93606873 489.26295319 -4.26974487 489.26899719 C-8.22554433 488.69991283 -9.85675493 487.57158739 -12.66015625 484.78125 C-13.78682633 482.52790984 -13.79778157 481.28190393 -13.82128906 478.78149414 C-13.83089661 477.95625748 -13.84050415 477.13102081 -13.85040283 476.28077698 C-13.85465271 475.38503464 -13.85890259 474.4892923 -13.86328125 473.56640625 C-13.86898132 472.64089462 -13.8746814 471.715383 -13.8805542 470.76182556 C-13.89001652 468.79557439 -13.89654305 466.82930728 -13.90039062 464.86303711 C-13.91001664 461.88691405 -13.94099449 458.91150538 -13.97265625 455.93554688 C-14.06115471 440.22222776 -12.49401974 426.61206311 -1.515625 414.4765625 C4.84840267 408.66185091 12.10528741 405.07612636 20.33984375 402.78125 C19.67597656 402.35714844 19.01210938 401.93304688 18.328125 401.49609375 C11.47788623 396.94593515 7.02565484 393.11619281 4.02734375 385.40625 C2.28715345 376.23070117 3.48662943 368.98625375 8.47265625 360.95703125 C11.50083423 356.97628073 15.06144664 355.13863176 19.33984375 352.78125 C19.21138062 351.79282104 19.21138062 351.79282104 19.08032227 350.78442383 C16.04670454 327.32458333 16.04670454 327.32458333 15.33984375 315.78125 C13.76698608 315.99346191 13.76698608 315.99346191 12.16235352 316.20996094 C-3.258132 318.10411969 -18.67028314 318.08930223 -34.17797852 318.04199219 C-37.96521846 318.03058821 -41.75217739 318.03736051 -45.53940773 318.04889679 C-61.00164015 318.08859386 -76.32197023 318.00040256 -91.66015625 315.78125 C-92.37717454 320.2462144 -93.08909618 324.71195108 -93.79638672 329.1784668 C-94.03751299 330.69659135 -94.28001018 332.21449884 -94.52392578 333.73217773 C-94.87506324 335.9185459 -95.22120037 338.10565719 -95.56640625 340.29296875 C-95.67577515 340.96712326 -95.78514404 341.64127777 -95.89782715 342.33586121 C-96.4454657 345.8386819 -96.96047887 349.23711791 -96.66015625 352.78125 C-94.86922838 354.4435194 -94.86922838 354.4435194 -92.47265625 355.65625 C-86.68175681 359.21637843 -83.80034581 362.84933399 -81.34765625 369.15625 C-79.75751665 377.54062246 -80.1794666 385.38130158 -84.9140625 392.7265625 C-88.4627704 397.19387326 -92.69579282 400.04707014 -97.66015625 402.78125 C-96.83773437 403.049375 -96.0153125 403.3175 -95.16796875 403.59375 C-83.39114502 407.7278775 -74.56704991 413.56000375 -68.66015625 424.78125 C-64.77062836 433.16061876 -63.49724289 440.32679761 -63.421875 449.5 C-63.41380325 450.43549683 -63.40573151 451.37099365 -63.39741516 452.33483887 C-63.38361833 454.30833098 -63.37287661 456.28184651 -63.36499023 458.25537109 C-63.35343384 460.27269484 -63.33292481 462.28998715 -63.3034668 464.30712891 C-63.26086024 467.22579674 -63.24463459 470.14356011 -63.234375 473.0625 C-63.21686691 473.96158081 -63.19935883 474.86066162 -63.18132019 475.7869873 C-63.19586125 479.9838234 -63.2922733 482.19218385 -65.56176758 485.82617188 C-69.21042189 489.22563944 -71.68219443 488.91645047 -76.60083008 488.94238281 C-77.31485489 488.94734772 -78.0288797 488.95231262 -78.76454163 488.95742798 C-81.13209999 488.97205978 -83.49959131 488.97885378 -85.8671875 488.984375 C-87.5114492 488.99012627 -89.15571088 488.995884 -90.79997253 489.00164795 C-94.2508475 489.01216128 -97.70169915 489.01800155 -101.15258789 489.02148438 C-105.57116642 489.02696535 -109.9894362 489.05098331 -114.40791798 489.07945633 C-117.80601394 489.09809633 -121.2040358 489.10328906 -124.60217857 489.10482025 C-126.23084893 489.10784498 -127.85951803 489.1158675 -129.4881382 489.12900543 C-131.76942917 489.14609242 -134.04996953 489.1441794 -136.33129883 489.13769531 C-137.62876541 489.14134094 -138.92623199 489.14498657 -140.26301575 489.14874268 C-143.89272507 488.75609139 -145.77676641 487.97720652 -148.66015625 485.78125 C-149.82753439 483.44649372 -149.80491017 482.03222107 -149.8371582 479.43017578 C-149.85641106 478.07703781 -149.85641106 478.07703781 -149.87605286 476.69656372 C-149.88343979 475.71646332 -149.89082672 474.73636292 -149.8984375 473.7265625 C-149.90650925 472.71463837 -149.91458099 471.70271423 -149.92289734 470.66012573 C-149.93675258 468.50976275 -149.94746827 466.35937765 -149.95532227 464.20898438 C-149.97240571 460.95398587 -150.01626322 457.70003774 -150.06054688 454.4453125 C-150.18708733 437.71626153 -148.74389773 426.35636024 -136.81640625 413.84765625 C-130.91184945 408.22138798 -123.63355148 404.53241624 -115.66015625 402.78125 C-116.15644531 402.513125 -116.65273437 402.245 -117.1640625 401.96875 C-123.50563508 398.31061326 -128.99837608 393.83599361 -131.83203125 386.921875 C-133.83886931 379.31103632 -133.76681207 370.93809033 -130.13671875 363.84765625 C-126.94912645 359.38671359 -122.55722941 355.86566764 -118.12573242 352.67724609 C-115.83906411 349.71901419 -115.62245497 346.32505614 -115.08984375 342.71875 C-114.963284 341.93105225 -114.83672424 341.14335449 -114.70632935 340.33178711 C-114.30441725 337.81660531 -113.91924364 335.29920961 -113.53515625 332.78125 C-113.14059254 330.26392389 -112.74261934 327.74717114 -112.34255981 325.23071289 C-112.09486483 323.66541345 -111.85097598 322.09950595 -111.61129761 320.53295898 C-111.14152686 317.5072907 -110.63058203 314.69252734 -109.66015625 311.78125 C-110.2428125 311.63429688 -110.82546875 311.48734375 -111.42578125 311.3359375 C-126.74899804 307.14373668 -140.04341542 298.91346423 -148.421875 285.09765625 C-152.11704886 278.18523323 -155.06427825 271.47048038 -156.66015625 263.78125 C-160.0817829 265.04992381 -162.98591621 266.50818948 -166.00048828 268.55932617 C-167.23800339 269.39611153 -167.23800339 269.39611153 -168.5005188 270.24980164 C-169.82090652 271.15288811 -169.82090652 271.15288811 -171.16796875 272.07421875 C-172.08923553 272.69847244 -173.01050232 273.32272614 -173.95968628 273.96589661 C-176.9045554 275.96240354 -179.84504469 277.96524508 -182.78515625 279.96875 C-185.70457161 281.95330454 -188.62491515 283.9364737 -191.5463562 285.91804504 C-193.36095361 287.14937266 -195.17429778 288.38255013 -196.9861145 289.6179657 C-201.51917464 292.69910397 -206.07954668 295.73511654 -210.67919922 298.71606445 C-211.58394989 299.30297562 -212.48870056 299.88988678 -213.42086792 300.49458313 C-215.66015625 301.78125 -215.66015625 301.78125 -217.66015625 301.78125 C-217.60214844 302.67585938 -217.54414063 303.57046875 -217.484375 304.4921875 C-217.17521937 312.77755847 -217.65397907 318.98536448 -222.66015625 325.78125 C-224.82780941 328.06018893 -227.10971004 329.94972151 -229.66015625 331.78125 C-230.99377178 332.78087363 -232.32717302 333.78078337 -233.66015625 334.78125 C-232.95890625 335.00039063 -232.25765625 335.21953125 -231.53515625 335.4453125 C-224.94348377 337.64850738 -219.8722882 340.18881952 -214.66015625 344.78125 C-214.04269531 345.30589844 -213.42523438 345.83054687 -212.7890625 346.37109375 C-205.85966911 352.70441029 -201.24703995 361.77789224 -200.45799255 371.19369507 C-200.36384647 373.99921904 -200.33059784 376.79836435 -200.32421875 379.60546875 C-200.31423355 381.14120293 -200.31423355 381.14120293 -200.30404663 382.70796204 C-200.29396096 384.86201184 -200.28922834 387.01609263 -200.28955078 389.17016602 C-200.28515621 392.46877858 -200.24873423 395.766075 -200.2109375 399.06445312 C-200.20507283 401.16145377 -200.2011011 403.25846075 -200.19921875 405.35546875 C-200.18484772 406.34093185 -200.17047668 407.32639496 -200.15567017 408.34172058 C-200.20120698 415.13590963 -200.20120698 415.13590963 -202.50146484 418.37036133 C-206.50136118 420.98463422 -209.85803541 420.91700729 -214.53076172 420.94238281 C-215.57275726 420.94983017 -215.57275726 420.94983017 -216.63580322 420.95742798 C-218.93299349 420.97202829 -221.23011471 420.97884784 -223.52734375 420.984375 C-225.12533571 420.99012799 -226.72332765 420.99588571 -228.32131958 421.00164795 C-231.67206137 421.01215172 -235.02277922 421.01799854 -238.37353516 421.02148438 C-242.66317341 421.02696933 -246.95249429 421.0509998 -251.242033 421.07945633 C-254.54319174 421.09809645 -257.8442742 421.10328902 -261.14548111 421.10482025 C-262.7267035 421.10784397 -264.30792464 421.11586304 -265.88909531 421.12900543 C-268.10322863 421.14609597 -270.31658886 421.14417884 -272.53076172 421.13769531 C-273.78968231 421.14134094 -275.04860291 421.14498657 -276.34567261 421.14874268 C-279.95408942 420.74866022 -281.79440143 419.97088492 -284.66015625 417.78125 C-286.70182382 414.71874864 -286.91486936 414.06448087 -286.95068359 410.60791016 C-286.9634433 409.76918365 -286.976203 408.93045715 -286.98934937 408.0663147 C-286.99157501 407.16013397 -286.99380066 406.25395325 -286.99609375 405.3203125 C-287.00275055 404.37876312 -287.00940735 403.43721375 -287.01626587 402.46713257 C-287.02640068 400.46817985 -287.03108263 398.46919323 -287.03076172 396.47021484 C-287.03509034 393.45220621 -287.0712759 390.43571418 -287.109375 387.41796875 C-287.2064847 371.03851558 -285.35994013 358.28249907 -273.81640625 345.78515625 C-269.4049772 341.58164292 -264.68709154 339.14216966 -259.078125 336.82421875 C-256.47354894 335.78669381 -256.47354894 335.78669381 -253.66015625 333.78125 C-254.24023438 333.46414063 -254.8203125 333.14703125 -255.41796875 332.8203125 C-262.30971903 328.70345837 -266.88025797 323.51405122 -269.296875 315.73046875 C-270.74992526 307.9339948 -269.47350217 300.7416314 -265.66015625 293.78125 C-260.24681945 287.20945912 -254.02430312 283.63961278 -245.6328125 282.5078125 C-240.24062626 282.23019499 -235.64360695 283.88419678 -230.66015625 285.78125 C-229.67015625 286.11125 -228.68015625 286.44125 -227.66015625 286.78125 C-225.43934503 285.56527495 -223.45022188 284.31304035 -221.37890625 282.875 C-220.74497452 282.44824982 -220.11104279 282.02149963 -219.457901 281.58181763 C-216.62070063 279.66725707 -213.80346949 277.72406748 -210.98410034 275.78338623 C-208.73157863 274.23456963 -206.47622944 272.6900189 -204.21875 271.1484375 C-203.05955299 270.35583023 -203.05955299 270.35583023 -201.87693787 269.54721069 C-196.30699197 265.78276851 -190.5968304 262.36667407 -184.7578125 259.0390625 C-167.71769752 250.39280969 -167.71769752 250.39280969 -157.16015625 235.69921875 C-156.49487303 230.60833817 -156.86702191 225.71333814 -157.45117188 220.62988281 C-157.78522345 216.07647882 -156.95237996 211.90079201 -155.97265625 207.46875 C-155.8022583 206.65929932 -155.63186035 205.84984863 -155.45629883 205.01586914 C-149.82347401 179.81398699 -137.44803944 157.36040913 -119.66015625 138.78125 C-118.63535156 137.66169922 -118.63535156 137.66169922 -117.58984375 136.51953125 C-108.49886761 126.90859153 -97.43850391 119.69446128 -85.66015625 113.78125 C-86.8409375 113.75546875 -88.02171875 113.7296875 -89.23828125 113.703125 C-90.79560948 113.64683603 -92.35289972 113.58948886 -93.91015625 113.53125 C-94.68746094 113.51707031 -95.46476563 113.50289063 -96.265625 113.48828125 C-100.01426502 113.32808296 -102.0657039 113.21892371 -105.1484375 110.94921875 C-107.29906274 107.86498875 -107.5946212 105.51674777 -107.66015625 101.78125 C-106.38182041 98.58541041 -105.51186291 97.20270354 -102.4152832 95.67041016 C-99.39885938 94.69692185 -96.86790213 94.46456526 -93.703125 94.3671875 C-92.59130859 94.32851562 -91.47949219 94.28984375 -90.33398438 94.25 C-89.18349609 94.2190625 -88.03300781 94.188125 -86.84765625 94.15625 C-85.67783203 94.11757812 -84.50800781 94.07890625 -83.30273438 94.0390625 C-80.42203061 93.9449987 -77.54132971 93.85935123 -74.66015625 93.78125 C-75.85898437 92.40066406 -75.85898437 92.40066406 -77.08203125 90.9921875 C-89.93856835 76.17746142 -89.93856835 76.17746142 -95.18383789 69.99707031 C-97.75384499 66.97373361 -100.36098617 63.9989736 -103.04296875 61.07421875 C-103.595896 60.46006104 -104.14882324 59.84590332 -104.71850586 59.21313477 C-105.77069838 58.04615187 -106.83586874 56.89068241 -107.91625977 55.74975586 C-111.6821155 51.53029003 -112.59650666 48.46342219 -112.66015625 42.78125 C-111.43434774 38.01787329 -107.237488 36.32719987 -103.24926758 33.93505859 C-94.20176785 28.62657035 -84.92524984 24.10755284 -74.66015625 21.78125 C-75.04429687 20.85183594 -75.4284375 19.92242187 -75.82421875 18.96484375 C-76.31226809 17.71656372 -76.79918752 16.46784151 -77.28515625 15.21875 C-77.77242187 14.00058594 -78.2596875 12.78242188 -78.76171875 11.52734375 C-79.82071124 7.11180549 -79.45655006 4.92098433 -77.66015625 0.78125 C-74.47328242 -2.79238036 -69.92037833 -3.36326694 -65.41015625 -4.34375 C-64.32154297 -4.59705078 -64.32154297 -4.59705078 -63.2109375 -4.85546875 C-45.53017562 -8.85806547 -15.47090282 -11.35746277 0 0 Z " fill="#9D775E" transform="translate(294.66015625,15.21875)"/>
<path d="M0 0 C1.9661512 2.61389197 2.18029832 4.52029715 2.33984375 7.78125 C1.34375 11.4296875 1.34375 11.4296875 -0.09765625 15.15625 C-0.34064453 15.79691406 -0.58363281 16.43757813 -0.83398438 17.09765625 C-1.43003051 18.66373824 -2.0433501 20.22322755 -2.66015625 21.78125 C-2.13550781 21.905 -1.61085938 22.02875 -1.0703125 22.15625 C9.43635138 24.95336518 28.55439975 31.05329998 34.546875 40.73046875 C35.9508183 44.36135659 35.7382216 47.2497534 34.33984375 50.78125 C32.09713558 53.69500471 29.6549337 56.28418368 27.09375 58.921875 C24.4875164 61.6279218 22.12466405 64.41270454 19.77734375 67.34375 C16.19889007 71.77751071 12.45531471 76.00962631 8.6171875 80.21875 C5.35256394 83.89215147 2.26962391 87.70441537 -0.8125 91.53125 C-4.26551603 95.73619129 -4.26551603 95.73619129 -7.41491699 96.09577942 C-8.58832642 96.12451645 -9.76173584 96.15325348 -10.97070312 96.18286133 C-11.61817505 96.2008226 -12.26564697 96.21878387 -12.93273926 96.23728943 C-15.08140173 96.29212363 -17.2298056 96.33001942 -19.37890625 96.36328125 C-20.11480484 96.37517675 -20.85070343 96.38707226 -21.60890198 96.39932823 C-25.51069264 96.4586895 -29.41236384 96.50248623 -33.31445312 96.53637695 C-36.53199378 96.5674271 -39.74649855 96.62988173 -42.96289062 96.72094727 C-46.85598144 96.83109251 -50.74630647 96.88604843 -54.6408844 96.90277672 C-56.11779567 96.91795783 -57.594648 96.95178524 -59.07066345 97.00541115 C-65.24681762 97.21723386 -70.59151306 97.36688178 -75.70117188 93.45028687 C-78.25445687 90.67359529 -80.4689724 87.84856955 -82.66015625 84.78125 C-84.17153739 82.91937054 -85.69113714 81.06410018 -87.22265625 79.21875 C-87.95613281 78.30996094 -88.68960938 77.40117188 -89.4453125 76.46484375 C-91.61648452 73.83416443 -93.86256982 71.30182576 -96.16015625 68.78125 C-112.66015625 50.63125 -112.66015625 50.63125 -112.66015625 44.28125 C-111.05216021 38.65326386 -107.3495447 36.02956675 -102.40234375 33.24609375 C-100.78606578 32.39196715 -99.1633749 31.54988823 -97.53515625 30.71875 C-96.69218994 30.28191895 -95.84922363 29.84508789 -94.98071289 29.39501953 C-80.05548948 21.78125 -80.05548948 21.78125 -74.66015625 21.78125 C-75.23636719 20.38712891 -75.23636719 20.38712891 -75.82421875 18.96484375 C-76.31226809 17.71656372 -76.79918752 16.46784151 -77.28515625 15.21875 C-77.77242187 14.00058594 -78.2596875 12.78242188 -78.76171875 11.52734375 C-79.82071124 7.11180549 -79.45655006 4.92098433 -77.66015625 0.78125 C-74.47328242 -2.79238036 -69.92037833 -3.36326694 -65.41015625 -4.34375 C-64.68441406 -4.51261719 -63.95867187 -4.68148438 -63.2109375 -4.85546875 C-45.53017562 -8.85806547 -15.47090282 -11.35746277 0 0 Z " fill="#9D775E" transform="translate(294.66015625,15.21875)"/>
<path d="M0 0 C10.22796479 7.12509907 16.44257338 17.33667792 18.7109375 29.578125 C19.00077681 32.98993204 19.03846143 36.38566186 19.046875 39.80859375 C19.0568602 41.23876579 19.0568602 41.23876579 19.06704712 42.6978302 C19.07711718 44.70047083 19.0818659 46.70314463 19.08154297 48.70581055 C19.08593993 51.76732037 19.12238414 54.82741422 19.16015625 57.88867188 C19.16602087 59.84114093 19.16999264 61.79361679 19.171875 63.74609375 C19.18624603 64.65763718 19.20061707 65.5691806 19.21542358 66.50834656 C19.18536249 70.68396072 19.06691663 72.98808322 16.86962891 76.63012695 C13.11631755 80.01710629 9.70523656 79.71283866 4.84033203 79.73925781 C4.14566833 79.74422272 3.45100464 79.74918762 2.73529053 79.75430298 C0.43810026 79.76890329 -1.85902096 79.77572284 -4.15625 79.78125 C-5.75424196 79.78700299 -7.3522339 79.79276071 -8.95022583 79.79852295 C-12.30096762 79.80902672 -15.65168547 79.81487354 -19.00244141 79.81835938 C-23.29207966 79.82384433 -27.58140054 79.8478748 -31.87093925 79.87633133 C-35.17209799 79.89497145 -38.47318045 79.90016402 -41.77438736 79.90169525 C-43.35560975 79.90471897 -44.93683089 79.91273804 -46.51800156 79.92588043 C-48.73213488 79.94297097 -50.94549511 79.94105384 -53.15966797 79.93457031 C-54.41858856 79.93821594 -55.67750916 79.94186157 -56.97457886 79.94561768 C-61.541393 79.43927312 -64.08641199 77.78077551 -67.2890625 74.578125 C-67.55648804 72.63406372 -67.55648804 72.63406372 -67.57958984 70.22705078 C-67.59234955 69.3249588 -67.60510925 68.42286682 -67.61825562 67.49343872 C-67.62048126 66.51333832 -67.62270691 65.53323792 -67.625 64.5234375 C-67.6316568 63.51151337 -67.6383136 62.49958923 -67.64517212 61.45700073 C-67.65531816 59.30663879 -67.65998854 57.15624523 -67.65966797 55.00585938 C-67.66399913 51.75075321 -67.70018086 48.49704971 -67.73828125 45.2421875 C-67.81753284 30.77427668 -67.37850519 18.84019057 -57.2890625 7.578125 C-56.78761719 6.97355469 -56.28617187 6.36898438 -55.76953125 5.74609375 C-41.74872766 -9.91217595 -17.00159107 -10.56071527 0 0 Z " fill="#EC3947" transform="translate(485.2890625,356.421875)"/>
<path d="M0 0 C3.74246027 2.09863657 7.03172048 4.42607969 10.25 7.26171875 C11.17619141 8.04869141 11.17619141 8.04869141 12.12109375 8.8515625 C19.05048714 15.18487904 23.6631163 24.25836099 24.4521637 33.67416382 C24.54630978 36.47968779 24.57955841 39.2788331 24.5859375 42.0859375 C24.5959227 43.62167168 24.5959227 43.62167168 24.60610962 45.18843079 C24.61619529 47.34248059 24.62092791 49.49656138 24.62060547 51.65063477 C24.62500004 54.94924733 24.66142202 58.24654375 24.69921875 61.54492188 C24.70508342 63.64192252 24.70905515 65.7389295 24.7109375 67.8359375 C24.72530853 68.8214006 24.73967957 69.80686371 24.75448608 70.82218933 C24.70894927 77.61637838 24.70894927 77.61637838 22.40869141 80.85083008 C18.40879507 83.46510297 15.05212084 83.39747604 10.37939453 83.42285156 C9.68473083 83.42781647 8.99006714 83.43278137 8.27435303 83.43789673 C5.97716276 83.45249704 3.68004154 83.45931659 1.3828125 83.46484375 C-0.21517946 83.47059674 -1.8131714 83.47635446 -3.41116333 83.4821167 C-6.76190512 83.49262047 -10.11262297 83.49846729 -13.46337891 83.50195312 C-17.75301716 83.50743808 -22.04233804 83.53146855 -26.33187675 83.55992508 C-29.63303549 83.5785652 -32.93411795 83.58375777 -36.23532486 83.585289 C-37.81654725 83.58831272 -39.39776839 83.59633179 -40.97893906 83.60947418 C-43.19307238 83.62656472 -45.40643261 83.62464759 -47.62060547 83.61816406 C-48.87952606 83.62180969 -50.13844666 83.62545532 -51.43551636 83.62921143 C-55.04393317 83.22912897 -56.88424518 82.45135367 -59.75 80.26171875 C-61.79166757 77.19921739 -62.00471311 76.54494962 -62.04052734 73.08837891 C-62.05328705 72.2496524 -62.06604675 71.4109259 -62.07919312 70.54678345 C-62.08141876 69.64060272 -62.08364441 68.734422 -62.0859375 67.80078125 C-62.0925943 66.85923187 -62.0992511 65.9176825 -62.10610962 64.94760132 C-62.11624443 62.9486486 -62.12092638 60.94966198 -62.12060547 58.95068359 C-62.12493409 55.93267496 -62.16111965 52.91618293 -62.19921875 49.8984375 C-62.29632845 33.51898433 -60.44978388 20.76296782 -48.90625 8.265625 C-36.506258 -3.54994115 -15.71868918 -6.99972877 0 0 Z " fill="#336C92" transform="translate(69.75,352.73828125)"/>
<path d="M0 0 C10.8477445 6.94014252 17.29125422 16.62681956 20.53271484 29.04003906 C21.1998467 33.26590457 21.20317726 37.44616138 21.23828125 41.71875 C21.246353 42.65424683 21.25442474 43.58974365 21.26274109 44.55358887 C21.27653792 46.52708098 21.28727964 48.50059651 21.29516602 50.47412109 C21.30672241 52.49144484 21.32723144 54.50873715 21.35668945 56.52587891 C21.39929601 59.44454674 21.41552166 62.36231011 21.42578125 65.28125 C21.44328934 66.18033081 21.46079742 67.07941162 21.47883606 68.0057373 C21.464295 72.2025734 21.36788295 74.41093385 19.09838867 78.04492188 C15.44973436 81.44438944 12.97796182 81.13520047 8.05932617 81.16113281 C7.34530136 81.16609772 6.63127655 81.17106262 5.89561462 81.17617798 C3.52805626 81.19080978 1.16056494 81.19760378 -1.20703125 81.203125 C-2.85129295 81.20887627 -4.49555463 81.214634 -6.13981628 81.22039795 C-9.59069125 81.23091128 -13.0415429 81.23675155 -16.49243164 81.24023438 C-20.91101017 81.24571535 -25.32927995 81.26973331 -29.74776173 81.29820633 C-33.14585769 81.31684633 -36.54387955 81.32203906 -39.94202232 81.32357025 C-41.57069268 81.32659498 -43.19936178 81.3346175 -44.82798195 81.34775543 C-47.10927292 81.36484242 -49.38981328 81.3629294 -51.67114258 81.35644531 C-53.61734245 81.36191376 -53.61734245 81.36191376 -55.6028595 81.36749268 C-59.23256882 80.97484139 -61.11661016 80.19595652 -64 78 C-65.16737814 75.66524372 -65.14475392 74.25097107 -65.17700195 71.64892578 C-65.18983719 70.7468338 -65.20267242 69.84474182 -65.21589661 68.91531372 C-65.22328354 67.93521332 -65.23067047 66.95511292 -65.23828125 65.9453125 C-65.246353 64.93338837 -65.25442474 63.92146423 -65.26274109 62.87887573 C-65.27659633 60.72851275 -65.28731202 58.57812765 -65.29516602 56.42773438 C-65.31224946 53.17273587 -65.35610697 49.91878774 -65.40039062 46.6640625 C-65.52693108 29.93501153 -64.08374148 18.57511024 -52.15625 6.06640625 C-38.33102242 -7.10722249 -16.51815541 -9.15946168 0 0 Z " fill="#F5AA00" transform="translate(210,423)"/>
<path d="M0 0 C8.22004747 6.75702985 13.90423988 15.24957475 16.12890625 25.75 C16.22717271 27.31619912 16.27687613 28.88585452 16.29003906 30.45507812 C16.29964661 31.38284058 16.30925415 32.31060303 16.31915283 33.26647949 C16.32340271 34.26135376 16.32765259 35.25622803 16.33203125 36.28125 C16.33773132 37.30931763 16.3434314 38.33738525 16.3493042 39.39660645 C16.35874189 41.56859308 16.36528329 43.74059395 16.36914062 45.91259766 C16.37886984 49.23755685 16.40991474 52.56190394 16.44140625 55.88671875 C16.44793427 57.99739216 16.45318553 60.10806999 16.45703125 62.21875 C16.46937805 63.21362427 16.48172485 64.20849854 16.4944458 65.23352051 C16.4914447 66.16128296 16.4884436 67.08904541 16.48535156 68.04492188 C16.49082001 69.2659259 16.49082001 69.2659259 16.49639893 70.51159668 C16.0339611 73.32831234 15.07377595 74.6845873 13.12890625 76.75 C9.6072255 77.92389358 6.79241138 77.89869427 3.07470703 77.92700195 C2.00345078 77.93685875 2.00345078 77.93685875 0.91055298 77.94691467 C-1.45155953 77.96661689 -3.81360861 77.97830225 -6.17578125 77.98828125 C-7.38690771 77.99439454 -7.38690771 77.99439454 -8.62250137 78.00063133 C-12.89465325 78.02147717 -17.16677313 78.0357863 -21.43896484 78.04516602 C-25.84975962 78.05623821 -30.26005098 78.09065127 -34.67066765 78.13033772 C-38.06447282 78.15648512 -41.45815755 78.16485607 -44.8520546 78.16844749 C-46.47795137 78.17331694 -48.10384265 78.18494119 -49.72964096 78.20348549 C-52.00620208 78.22784225 -54.28145386 78.22691921 -56.55810547 78.2199707 C-57.85255585 78.22583694 -59.14700623 78.23170319 -60.48068237 78.23774719 C-64.43648183 77.66866283 -66.06769243 76.54033739 -68.87109375 73.75 C-69.99776383 71.49665984 -70.00871907 70.25065393 -70.03222656 67.75024414 C-70.04183411 66.92500748 -70.05144165 66.09977081 -70.06134033 65.24952698 C-70.06559021 64.35378464 -70.06984009 63.4580423 -70.07421875 62.53515625 C-70.08276886 61.14688881 -70.08276886 61.14688881 -70.0914917 59.73057556 C-70.10095402 57.76432439 -70.10748055 55.79805728 -70.11132812 53.83178711 C-70.12095414 50.85566405 -70.15193199 47.88025538 -70.18359375 44.90429688 C-70.27209221 29.19097776 -68.70495724 15.58081311 -57.7265625 3.4453125 C-41.36043767 -11.50815734 -18.02045078 -12.89477695 0 0 Z " fill="#30B691" transform="translate(350.87109375,426.25)"/>
<path d="M0 0 C1.73891488 6.90053811 3.03373166 14.04626697 1 21 C-4.09127731 28.01109737 -12.62507729 31.9954081 -20 36.1875 C-22.00179792 37.39704116 -23.99925549 38.61379636 -25.9921875 39.83789062 C-29.84939085 42.19576505 -33.72711275 44.51117455 -37.62890625 46.79443359 C-43.12280105 50.0323253 -48.42549367 53.51009108 -53.66162109 57.147995 C-57.8038828 60 -57.8038828 60 -60 60 C-59.94199219 60.89460938 -59.88398437 61.78921875 -59.82421875 62.7109375 C-59.478791 71.96840131 -60.33275031 78.77844512 -66.64453125 85.83984375 C-73.640277 92.29866996 -80.10548208 93.64555625 -89.48828125 93.40625 C-96.63476492 92.57951552 -101.91584749 89.79258025 -106.4375 84.1875 C-110.85589398 77.5035839 -113.11683395 71.05159357 -112 63 C-110.15017362 54.36747689 -106.39570538 48.85120224 -99 44 C-91.73410672 40.35473829 -84.8510044 39.92426673 -77.1875 42.4375 C-75.78859281 42.95001998 -74.39236606 43.46996716 -73 44 C-72.01 44.33 -71.02 44.66 -70 45 C-67.7791391 43.78399774 -65.78991841 42.5321086 -63.71875 41.09375 C-63.08481827 40.66591217 -62.45088654 40.23807434 -61.79774475 39.79727173 C-60.4173011 38.86398969 -59.04003154 37.92599984 -57.66555786 36.98394775 C-55.48758267 35.49149103 -53.30174677 34.01133023 -51.11303711 32.53466797 C-48.81318838 30.98295943 -46.51381152 29.43060453 -44.21678162 27.87472534 C-36.15082421 22.41217428 -28.03583078 17.0251547 -19.90039062 11.66674805 C-17.5805083 10.13687578 -15.26480492 8.60081751 -12.94921875 7.06445312 C-11.53018084 6.12855299 -10.11092175 5.1929881 -8.69140625 4.2578125 C-8.04083755 3.82449615 -7.39026886 3.39117981 -6.71998596 2.94473267 C-2.22833581 0 -2.22833581 0 0 0 Z " fill="#EDBC91" transform="translate(137,257)"/>
<path d="M0 0 C2.8125 2.1875 2.8125 2.1875 5 5 C5.1546875 6.2375 5.1546875 6.2375 5.3125 7.5 C6.31732729 11.15391743 8.68401731 11.79641538 11.85546875 13.625 C15.31121914 15.84070881 17.91719565 18.45544568 20 22 C20.6875 25.625 20.6875 25.625 20 29 C17.48896353 32.57632467 15.95727512 33.78325846 11.6875 34.75 C7.05797298 33.80840128 5.25578288 31.75963587 1.91796875 28.5703125 C-0.02109148 26.72858865 -0.02109148 26.72858865 -3.25 26.375 C-6.44222094 27.10050476 -7.91746191 27.4368762 -10 30 C-10.81755002 35.51529156 -10.81755002 35.51529156 -8.328125 40.1953125 C-5.51752247 42.37400103 -3.76330481 42.60528335 -0.25 42.9375 C8.26868638 44.13965039 13.29257827 47.66495303 18.7734375 54.15625 C23.03870207 60.5677305 22.77856417 67.56309016 22 75 C19.97096886 81.78457286 16.10630368 87.29796802 10 91 C7.78515625 91.65234375 7.78515625 91.65234375 6 92 C5.9175 92.9075 5.835 93.815 5.75 94.75 C4.87172124 98.55587463 4.24499591 99.83666939 1 102 C-3.07026042 102.81906678 -5.99455608 102.65353855 -9.5 100.375 C-11.37956836 97.39901677 -11.31424507 95.45669582 -11 92 C-12.10794922 91.85498047 -12.10794922 91.85498047 -13.23828125 91.70703125 C-16.36662268 90.90614045 -17.8082616 89.83663798 -20.1875 87.6875 C-20.86167969 87.09324219 -21.53585938 86.49898438 -22.23046875 85.88671875 C-24.85981821 83.08324018 -25.87297991 80.85284918 -26.4375 77.0625 C-26 74 -26 74 -23.9375 71.125 C-21 69 -21 69 -17.5 68.375 C-13.14331162 69.15298007 -11.83424328 70.69338284 -9 74 C-5.50875983 76.32749345 -4.10777749 76.50299316 0 76 C2.54002013 74.62716577 2.54002013 74.62716577 4 72 C4.58428517 69.0368395 4.39344818 67.09840439 4 64 C1.02324192 60.98854777 -1.56862495 60.59131128 -5.6875 60.1875 C-13.35170072 59.05656306 -18.76274783 55.716296 -23.9375 50 C-28.81414441 42.90669904 -28.74486536 35.33676225 -28 27 C-26.29807032 20.26768322 -21.48774883 15.96575599 -16 12 C-15.278125 11.67644531 -14.55625 11.35289062 -13.8125 11.01953125 C-10.82968138 9.34169578 -10.88881176 6.1663919 -10 3 C-7.01877507 -0.30064188 -4.33156222 -0.70719383 0 0 Z " fill="#6B503E" transform="translate(259,179)"/>
<path d="M0 0 C2.01605582 2.01605582 1.80399919 5.80946088 2.19140625 8.578125 C2.35575417 9.72350739 2.35575417 9.72350739 2.52342224 10.89202881 C2.7548792 12.51252717 2.98423322 14.13332704 3.21166992 15.75439453 C3.55918844 18.22644346 3.91481857 20.69722499 4.27148438 23.16796875 C4.49528209 24.74211785 4.71860456 26.31633461 4.94140625 27.890625 C5.04763809 28.62726379 5.15386993 29.36390259 5.26332092 30.12286377 C5.77098484 33.77601743 6.12246794 37.31059691 6 41 C7.2684375 41.2784375 7.2684375 41.2784375 8.5625 41.5625 C14.52401215 44.05549599 18.46493314 48.42145298 21.4375 54.125 C24.28291684 61.34324359 24.28291684 69.65675641 21.4375 76.875 C17.67508802 84.08187365 12.63616183 88.27733523 5 91 C-3.67367867 92.14057548 -11.62496647 92.07746507 -18.9453125 86.83984375 C-25.57839053 80.90033852 -28.87075717 74.66932539 -29.375 65.6875 C-29.17014889 57.68464995 -25.66121056 50.5295545 -20 45 C-17.7186322 43.5610646 -15.36433955 42.30274278 -13 41 C-13.08564209 40.34628418 -13.17128418 39.69256836 -13.25952148 39.01904297 C-16.38751804 14.99619839 -16.38751804 14.99619839 -17 3 C-15.10614563 2.49255577 -13.20981334 1.99435426 -11.3125 1.5 C-10.25675781 1.2215625 -9.20101563 0.943125 -8.11328125 0.65625 C-5.27515312 0.05799965 -2.88495495 -0.20792468 0 0 Z " fill="#EEBD91" transform="translate(327,327)"/>
<path d="M0 0 C1.53709373 -0.01062721 1.53709373 -0.01062721 3.10523987 -0.02146912 C4.77532104 -0.01775299 4.77532104 -0.01775299 6.47914124 -0.01396179 C7.66016922 -0.01907272 8.8411972 -0.02418365 10.05801392 -0.02944946 C13.28947069 -0.04095453 16.52076811 -0.04342118 19.75223994 -0.04088616 C22.45348661 -0.03981465 25.15470975 -0.0447044 27.85595137 -0.04949158 C34.23036598 -0.06057739 40.60472166 -0.06102936 46.97914124 -0.05497742 C53.54742427 -0.04893716 60.11549311 -0.06125193 66.6837396 -0.08254749 C72.33061044 -0.10018017 77.97741321 -0.10616224 83.62431055 -0.10290974 C86.99361756 -0.10109944 90.36277176 -0.10370766 93.73205376 -0.11762428 C97.49036567 -0.12995262 101.24818109 -0.12321809 105.00648499 -0.11161804 C106.11784821 -0.11926178 107.22921143 -0.12690552 108.37425232 -0.13478088 C113.9207926 -0.09691878 118.05144941 0.05375897 122.80751038 3.26069641 C124.97973416 5.90514276 124.80644358 7.29056659 124.68251038 10.76069641 C123.68236454 14.76127974 123.10543104 15.8544613 119.80751038 18.26069641 C116.83311411 18.91063834 113.89148195 18.95330781 110.85462952 19.00239563 C109.9695147 19.0309709 109.08439989 19.05954617 108.17246342 19.08898735 C105.3840842 19.17043174 102.59676901 19.22050045 99.80751038 19.26069641 C98.95514172 19.27486855 98.10277306 19.28904068 97.22457504 19.30364227 C91.1673746 19.39444875 85.11135994 19.40121566 79.05360413 19.39350891 C77.13230375 19.39418573 75.21100346 19.39515886 73.28970337 19.39640808 C69.29896718 19.39786698 65.30825365 19.39578935 61.31752014 19.3910675 C56.25974189 19.38536745 51.2020167 19.38866267 46.14424038 19.39463997 C42.18802507 19.39829162 38.23182188 19.39708617 34.27560616 19.39451218 C32.41290849 19.39385577 30.55020963 19.394625 28.68751335 19.39699173 C22.72631794 19.40290896 16.7678631 19.36217569 10.80751038 19.26069641 C9.92564686 19.24749107 9.04378334 19.23428574 8.13519669 19.22068024 C5.51178343 19.17114536 2.89102066 19.09176283 0.26869202 19.00239563 C-0.92131456 18.98201831 -0.92131456 18.98201831 -2.13536167 18.96122932 C-5.65153472 18.81048547 -7.80127392 18.55075702 -10.66271973 16.42918396 C-12.8364984 13.34779767 -13.12677865 11.0062217 -13.19248962 7.26069641 C-11.9020004 4.03447336 -11.03317602 2.67154125 -7.89983273 1.14027119 C-5.0944555 0.22884661 -2.94020856 0.00680275 0 0 Z " fill="#FCC00A" transform="translate(200.19248962402344,109.73930358886719)"/>
<path d="M0 0 C7.40519784 4.85742881 11.13212846 10.36573287 13 19 C14.31994069 27.36425575 11.34564795 34.34354879 6.875 41.3125 C0.90572443 46.89247499 -4.79728234 49.30367483 -13 49.625 C-21.34479232 49.28939422 -27.73115168 46.80571468 -33.4375 40.625 C-38.40459177 34.03973385 -39.68487186 28.58368837 -39.4765625 20.35546875 C-38.38207052 12.64916863 -34.09402491 5.85827669 -27.9140625 1.1484375 C-19.04239614 -4.17456232 -9.2444775 -4.63790736 0 0 Z " fill="#A87D48" transform="translate(474,301)"/>
<path d="M0 0 C6.22102886 6.5038029 9.10757236 13.5113434 8.9609375 22.44140625 C8.21334062 31.06645918 4.41366766 36.93878478 -2.078125 42.41796875 C-9.10663732 47.2064781 -17.13151801 46.75541932 -25.25 45.875 C-32.29506139 44.21990057 -37.24919487 38.67898491 -41.25 32.875 C-44.33092573 25.46277284 -44.68686163 16.62246483 -41.8125 9.0625 C-38.67274884 3.00646751 -33.39425032 -1.44806649 -27.4375 -4.625 C-17.43688006 -6.1937247 -8.56977164 -5.60331223 0 0 Z " fill="#A87D48" transform="translate(205.25,372.125)"/>
<path d="M0 0 C1.72987792 6.9009189 3.01981264 14.04550664 1 21 C-4.04715684 27.98915664 -12.54027018 31.95329262 -19.875 36.125 C-21.8598637 37.32610033 -23.84039306 38.53439407 -25.81640625 39.75 C-29.67431907 42.11008123 -33.55257403 44.42803772 -37.45605469 46.71191406 C-45.13250178 51.22399359 -52.5707738 56.09503785 -60 61 C-62.46984426 57.74240452 -64.61980906 54.40730603 -66.71875 50.90234375 C-67.98868899 49.01679409 -69.37577739 47.579819 -71 46 C-64.13251156 40.92200802 -57.18237411 36.05793173 -50 31.4375 C-42.57227836 26.63371903 -35.16840138 21.7976431 -27.79296875 16.9140625 C-26.19080915 15.8548175 -24.5885955 14.79565423 -22.98632812 13.73657227 C-20.58827394 12.1514565 -18.19119954 10.56495873 -15.79711914 8.97384644 C-13.54842918 7.47974983 -11.29609883 5.99129547 -9.04296875 4.50390625 C-8.01951607 3.82063766 -8.01951607 3.82063766 -6.97538757 3.12356567 C-2.22752048 0 -2.22752048 0 0 0 Z " fill="#B9BECC" transform="translate(137,257)"/>
<path d="M0 0 C3.35805418 1.25414668 6.26934225 2.67580279 9.25756836 4.65112305 C10.06775925 5.18361664 10.87795013 5.71611023 11.71269226 6.26473999 C12.57965225 6.84124298 13.44661224 7.41774597 14.33984375 8.01171875 C15.25123611 8.61287506 16.16262848 9.21403137 17.10163879 9.83340454 C20.05000217 11.7801618 22.99386912 13.73359582 25.9375 15.6875 C27.94484599 17.01543125 29.95233293 18.34314945 31.95996094 19.6706543 C45.04998596 28.33560295 58.09450513 37.0618642 71 46 C70.59442871 46.45383057 70.18885742 46.90766113 69.77099609 47.37524414 C66.95960055 50.57624174 64.40776566 53.52912913 62.625 57.4375 C62.08875 58.613125 61.5525 59.78875 61 61 C57.59807729 59.73728999 54.70468874 58.29364837 51.70727539 56.25366211 C50.89194839 55.70226059 50.0766214 55.15085907 49.23658752 54.58274841 C48.3657402 53.98696487 47.49489288 53.39118134 46.59765625 52.77734375 C45.68350449 52.1578334 44.76935272 51.53832306 43.82749939 50.90003967 C40.90278499 48.91697282 37.9824392 46.9275898 35.0625 44.9375 C32.1814005 42.97848773 29.29936964 41.02086845 26.41609192 39.06506348 C24.54732228 37.79683068 22.68002427 36.52642651 20.81425476 35.25378418 C16.76483801 32.50093448 12.70953169 29.78648449 8.5324707 27.23046875 C7.5428257 26.621213 7.5428257 26.621213 6.53318787 25.99964905 C4.82355639 24.95869233 3.10150232 23.93821147 1.37841797 22.91967773 C-1 21 -1 21 -1.84741211 18.47583008 C-1.94897871 15.82546467 -1.54854736 13.59313297 -1 11 C-0.81617547 8.9598066 -0.6492969 6.91801028 -0.5 4.875 C-0.33790404 3.2495377 -0.17293407 1.62434497 0 0 Z " fill="#B8BECB" transform="translate(375,257)"/>
<path d="M0 0 C6.1483807 0.58556007 11.9870394 1.60476361 18 3 C16.25235848 15.7205076 14.3066568 28.368308 12 41 C5.73 41 -0.54 41 -7 41 C-6.16619788 35.64275762 -5.33084543 30.28580609 -4.49145508 24.92944336 C-4.20634795 23.10699706 -3.92216256 21.28440632 -3.63891602 19.46166992 C-3.23175107 16.84255109 -2.82127996 14.22396871 -2.41015625 11.60546875 C-2.28407486 10.78974899 -2.15799347 9.97402924 -2.02809143 9.1335907 C-1.53139671 5.98681581 -1.00941346 3.02824037 0 0 Z " fill="#B8BECB" transform="translate(185,327)"/>
<path d="M0 0 C2.01605582 2.01605582 1.80399919 5.80946088 2.19140625 8.578125 C2.35575417 9.72350739 2.35575417 9.72350739 2.52342224 10.89202881 C2.7548792 12.51252717 2.98423322 14.13332704 3.21166992 15.75439453 C3.55918844 18.22644346 3.91481857 20.69722499 4.27148438 23.16796875 C4.49528209 24.74211785 4.71860456 26.31633461 4.94140625 27.890625 C5.04763809 28.62726379 5.15386993 29.36390259 5.26332092 30.12286377 C5.7774917 33.82284083 6 37.24365577 6 41 C0.06 41 -5.88 41 -12 41 C-17.15419335 12.41765509 -17.15419335 12.41765509 -17 3 C-15.10614563 2.49255577 -13.20981334 1.99435426 -11.3125 1.5 C-9.72888672 1.08234375 -9.72888672 1.08234375 -8.11328125 0.65625 C-5.27515312 0.05799965 -2.88495495 -0.20792468 0 0 Z " fill="#B8BECB" transform="translate(327,327)"/>
<path d="M0 0 C4.46321565 0.52411061 8.30099267 1.305901 12.4375 3.0625 C13.30246094 3.42472656 14.16742188 3.78695312 15.05859375 4.16015625 C15.69925781 4.43730469 16.33992188 4.71445312 17 5 C15.12485466 11.06664669 12.90846607 16.97733737 10.5625 22.875 C10.13022095 23.99926392 10.13022095 23.99926392 9.68920898 25.14624023 C6.9242451 31.98401526 6.9242451 31.98401526 3 34 C-1.43414325 34.64496629 -3.27315181 34.52580508 -6.9375 31.875 C-9.4059076 28.4341894 -9.32929104 27.1448552 -9 23 C-8.17382812 20.20751953 -8.17382812 20.20751953 -7.03125 17.3828125 C-6.62519531 16.36445312 -6.21914063 15.34609375 -5.80078125 14.296875 C-5.37152344 13.25015625 -4.94226563 12.2034375 -4.5 11.125 C-3.85611328 9.52011719 -3.85611328 9.52011719 -3.19921875 7.8828125 C-2.14193966 5.25136231 -1.07532224 2.62411674 0 0 Z " fill="#80624B" transform="translate(290,37)"/>
<path d="M0 0 C1.51687847 3.70164964 3.01043978 7.41228234 4.5 11.125 C4.92925781 12.17171875 5.35851562 13.2184375 5.80078125 14.296875 C6.40986328 15.82441406 6.40986328 15.82441406 7.03125 17.3828125 C7.40830078 18.31496582 7.78535156 19.24711914 8.17382812 20.20751953 C9.09554329 23.32293857 9.28792829 25.76750275 9 29 C6.39210172 32.63525215 4.9297642 33.83397068 0.5 34.625 C-3.7351348 33.86872593 -5.55484462 32.38758787 -8 29 C-9.85140221 25.3641225 -11.33752029 21.61406999 -12.8125 17.8125 C-13.21919922 16.80251953 -13.62589844 15.79253906 -14.04492188 14.75195312 C-17 7.32700893 -17 7.32700893 -17 5 C-14.91999989 4.15838146 -12.83585854 3.32699237 -10.75 2.5 C-9.58984375 2.0359375 -8.4296875 1.571875 -7.234375 1.09375 C-4 0 -4 0 0 0 Z " fill="#80624B" transform="translate(222,37)"/>
</svg>
