<?xml version="1.0" encoding="UTF-8"?>
<svg version="1.1" xmlns="http://www.w3.org/2000/svg" width="512" height="512">
<path d="M0 0 C0.75356502 -0.00350607 1.50713003 -0.00701215 2.28353035 -0.01062447 C4.81100273 -0.01993531 7.33824453 -0.01501598 9.86572647 -0.01015663 C11.69519115 -0.01389305 13.52465423 -0.01849454 15.35411477 -0.02388728 C20.38356959 -0.03613374 25.41295797 -0.03585487 30.4424243 -0.03349853 C35.86588411 -0.03309077 41.28932251 -0.04412554 46.71277237 -0.05361366 C57.3393302 -0.07023377 67.96586583 -0.07572367 78.59243557 -0.07683842 C87.22970122 -0.07778843 95.86695954 -0.0818964 104.50422287 -0.08823967 C128.98798368 -0.105855 153.47172694 -0.11507811 177.95549414 -0.11357872 C178.61535333 -0.11353883 179.27521253 -0.11349894 179.95506747 -0.11345784 C181.28946386 -0.11337697 182.62386026 -0.11329337 183.95825665 -0.11320706 C204.71668688 -0.1119817 225.47505176 -0.12699199 246.23346329 -0.15435219 C269.55832896 -0.18505421 292.88315141 -0.20225877 316.20803857 -0.20042574 C328.55693419 -0.19976153 340.90575612 -0.20526758 353.25463486 -0.22678185 C363.76878473 -0.2449821 374.28282751 -0.24935045 384.79698631 -0.235763 C390.16124769 -0.2292275 395.52530354 -0.22913729 400.88954544 -0.2464695 C405.80221132 -0.26217935 410.71450834 -0.25935776 415.62716511 -0.24190123 C417.40238911 -0.23882675 419.17764049 -0.24248058 420.95283219 -0.25362138 C433.25497931 -0.32570127 443.27686504 0.53418665 452.60162735 9.33148766 C458.90675577 16.25449058 461.66831469 23.53353009 461.61280251 32.90173531 C461.61630858 33.65530032 461.61981465 34.40886534 461.62342697 35.18526566 C461.63273782 37.71273803 461.62781849 40.23997984 461.62295914 42.76746178 C461.62669556 44.59692645 461.63129705 46.42638953 461.63668978 48.25585008 C461.64893625 53.28530489 461.64865737 58.31469327 461.64630103 63.3441596 C461.64589328 68.76761942 461.65692804 74.19105781 461.66641617 79.61450768 C461.68303628 90.2410655 461.68852618 100.86760114 461.68964092 111.49417087 C461.69059094 120.13143652 461.6946989 128.76869484 461.70104218 137.40595818 C461.7186575 161.88971898 461.72788061 186.37346225 461.72638123 210.85722944 C461.72634134 211.51708864 461.72630145 212.17694784 461.72626035 212.85680277 C461.72617947 214.19119917 461.72609588 215.52559556 461.72600956 216.85999196 C461.72478421 237.61842218 461.73979449 258.37678706 461.76715469 279.13519859 C461.79785671 302.46006426 461.81506127 325.78488672 461.81322825 349.10977387 C461.81256404 361.4586695 461.81807009 373.80749142 461.83958435 386.15637016 C461.8577846 396.67052004 461.86215296 407.18456282 461.8485655 417.69872162 C461.84203001 423.062983 461.84193979 428.42703884 461.859272 433.79128075 C461.87498185 438.70394663 461.87216027 443.61624364 461.85470374 448.52890041 C461.85162926 450.30412441 461.85528309 452.0793758 461.86642389 453.8545675 C461.93850378 466.15671462 461.07861586 476.17860035 452.28131485 485.50336266 C445.35831193 491.80849108 438.07927241 494.57005 428.7110672 494.51453781 C427.58071967 494.51979692 427.58071967 494.51979692 426.42753685 494.52516228 C423.90006447 494.53447312 421.37282267 494.52955379 418.84534073 494.52469444 C417.01587605 494.52843086 415.18641297 494.53303235 413.35695243 494.53842509 C408.32749761 494.55067155 403.29810923 494.55039268 398.2686429 494.54803634 C392.84518309 494.54762859 387.42174469 494.55866335 381.99829483 494.56815147 C371.371737 494.58477158 360.74520137 494.59026148 350.11863163 494.59137623 C341.48136598 494.59232624 332.84410766 494.59643421 324.20684433 494.60277748 C299.72308352 494.62039281 275.23934025 494.62961592 250.75557306 494.62811653 C250.09571386 494.62807664 249.43585467 494.62803675 248.75599973 494.62799565 C247.42160334 494.62791478 246.08720694 494.62783118 244.75281055 494.62774487 C223.99438032 494.62651951 203.23601544 494.6415298 182.47760391 494.66889 C159.15273824 494.69959202 135.82791579 494.71679658 112.50302863 494.71496356 C100.15413301 494.71429934 87.80531108 494.71980539 75.45643234 494.74131966 C64.94228247 494.75951991 54.42823969 494.76388827 43.91408089 494.75030081 C38.54981951 494.74376532 33.18576366 494.7436751 27.82152176 494.76100731 C22.90885588 494.77671716 17.99655886 494.77389557 13.08390209 494.75643905 C11.30867809 494.75336456 9.53342671 494.75701839 7.75823501 494.7681592 C-4.54391211 494.84023908 -14.56579784 493.98035116 -23.89056015 485.18305016 C-30.19568857 478.26004723 -32.95724749 470.98100772 -32.90173531 461.61280251 C-32.90524138 460.85923749 -32.90874745 460.10567247 -32.91235977 459.32927215 C-32.92167062 456.80179978 -32.91675129 454.27455797 -32.91189194 451.74707603 C-32.91562836 449.91761136 -32.92022985 448.08814828 -32.92562258 446.25868773 C-32.93786905 441.22923292 -32.93759017 436.19984454 -32.93523383 431.17037821 C-32.93482608 425.74691839 -32.94586084 420.32348 -32.95534897 414.90003014 C-32.97196908 404.27347231 -32.97745898 393.64693667 -32.97857372 383.02036694 C-32.97952374 374.38310129 -32.9836317 365.74584297 -32.98997498 357.10857964 C-33.0075903 332.62481883 -33.01681341 308.14107556 -33.01531403 283.65730837 C-33.01527414 282.99744917 -33.01523425 282.33758997 -33.01519315 281.65773504 C-33.01511227 280.32333864 -33.01502868 278.98894225 -33.01494236 277.65454585 C-33.01371701 256.89611563 -33.02872729 236.13775075 -33.05608749 215.37933922 C-33.08678951 192.05447355 -33.10399407 168.72965109 -33.10216105 145.40476394 C-33.10149684 133.05586832 -33.10700289 120.70704639 -33.12851715 108.35816765 C-33.1467174 97.84401777 -33.15108576 87.32997499 -33.1374983 76.81581619 C-33.13096281 71.45155481 -33.13087259 66.08749897 -33.1482048 60.72325706 C-33.16391465 55.81059118 -33.16109307 50.89829417 -33.14363654 45.9856374 C-33.14056206 44.2104134 -33.14421589 42.43516201 -33.15535669 40.65997031 C-33.22743658 28.35782319 -32.36754866 18.33593746 -23.57024765 9.01117516 C-16.64724473 2.70604673 -9.36820521 -0.05551219 0 0 Z " fill="#64B5F5" transform="translate(41.644466400146484,8.742731094360352)"/>
<path d="M0 0 C0.75356502 -0.00350607 1.50713003 -0.00701215 2.28353035 -0.01062447 C4.81100273 -0.01993531 7.33824453 -0.01501598 9.86572647 -0.01015663 C11.69519115 -0.01389305 13.52465423 -0.01849454 15.35411477 -0.02388728 C20.38356959 -0.03613374 25.41295797 -0.03585487 30.4424243 -0.03349853 C35.86588411 -0.03309077 41.28932251 -0.04412554 46.71277237 -0.05361366 C57.3393302 -0.07023377 67.96586583 -0.07572367 78.59243557 -0.07683842 C87.22970122 -0.07778843 95.86695954 -0.0818964 104.50422287 -0.08823967 C128.98798368 -0.105855 153.47172694 -0.11507811 177.95549414 -0.11357872 C178.61535333 -0.11353883 179.27521253 -0.11349894 179.95506747 -0.11345784 C181.28946386 -0.11337697 182.62386026 -0.11329337 183.95825665 -0.11320706 C204.71668688 -0.1119817 225.47505176 -0.12699199 246.23346329 -0.15435219 C269.55832896 -0.18505421 292.88315141 -0.20225877 316.20803857 -0.20042574 C328.55693419 -0.19976153 340.90575612 -0.20526758 353.25463486 -0.22678185 C363.76878473 -0.2449821 374.28282751 -0.24935045 384.79698631 -0.235763 C390.16124769 -0.2292275 395.52530354 -0.22913729 400.88954544 -0.2464695 C405.80221132 -0.26217935 410.71450834 -0.25935776 415.62716511 -0.24190123 C417.40238911 -0.23882675 419.17764049 -0.24248058 420.95283219 -0.25362138 C433.25497931 -0.32570127 443.27686504 0.53418665 452.60162735 9.33148766 C470.92315169 29.44843977 461.3555336 60.83752171 461.3555336 85.25726891 C298.3355336 85.25726891 135.3155336 85.25726891 -32.6444664 85.25726891 C-32.6444664 18.62945841 -32.6444664 18.62945841 -23.57024765 9.01117516 C-16.64724473 2.70604673 -9.36820521 -0.05551219 0 0 Z " fill="#004960" transform="translate(41.644466400146484,8.742731094360352)"/>
<path d="M0 0 C50.24444933 -0.16121214 50.24444933 -0.16121214 71.25390625 -0.1953125 C85.77658723 -0.21907305 100.29917558 -0.24704786 114.82177734 -0.30175781 C125.39719293 -0.34157889 135.97253356 -0.36742173 146.54802203 -0.37635398 C152.14967547 -0.38157673 157.75111446 -0.3938838 163.35269928 -0.42292023 C168.62217267 -0.45001453 173.89134271 -0.45845709 179.16087914 -0.45243073 C181.09750961 -0.45353364 183.03414994 -0.461523 184.97072029 -0.4768219 C187.61027086 -0.49665627 190.24866867 -0.49196341 192.88824463 -0.48101807 C193.65867387 -0.49266943 194.42910311 -0.5043208 195.22287869 -0.51632524 C198.55982982 -0.47879505 200.66040636 -0.22280723 203.47692108 1.62510681 C205.48090961 4.74986853 205.49278117 6.7739325 205.48101807 10.47930908 C205.48444214 11.1263681 205.48786621 11.77342712 205.49139404 12.44009399 C205.49801039 14.61318146 205.47593271 16.78503325 205.45410156 18.95800781 C205.45287615 20.54043921 205.45341031 22.12287279 205.45556259 23.70530319 C205.4564659 27.94429556 205.43327773 32.18283658 205.40512085 36.42172241 C205.38234625 40.39883858 205.3812687 44.3758448 205.37841797 48.35302734 C205.35742601 59.98541138 205.30158139 71.61771138 205.25 83.25 C205.1675 109.2375 205.085 135.225 205 162 C137.35 162 69.7 162 0 162 C0 108.54 0 55.08 0 0 Z " fill="#E4F7FE" transform="translate(264,129)"/>
<path d="M0 0 C0.82421172 -0.0034177 1.64842345 -0.0068354 2.49761128 -0.01035666 C5.2632658 -0.01695265 8.02795277 0.00506855 10.79351807 0.0269165 C12.77437823 0.02804461 14.75524006 0.02741184 16.73609924 0.02514648 C22.11806814 0.02399698 27.49968176 0.04754472 32.88156796 0.07544231 C38.50431972 0.10041649 44.12707926 0.10279483 49.74987793 0.10754395 C60.39940479 0.11998543 71.04876776 0.15282298 81.6982224 0.1929419 C96.08742429 0.24597474 110.47667087 0.2675956 124.86594582 0.29095078 C147.54016823 0.32858347 170.21404475 0.40826662 192.88824463 0.48101807 C192.88824463 53.94101807 192.88824463 107.40101807 192.88824463 162.48101807 C125.23824463 162.48101807 57.58824463 162.48101807 -12.11175537 162.48101807 C-12.19425537 136.49351807 -12.27675537 110.50601807 -12.36175537 83.73101807 C-12.39817139 75.51872314 -12.4345874 67.30642822 -12.47210693 58.84527588 C-12.49017334 48.83404541 -12.49017334 48.83404541 -12.49353027 44.15063477 C-12.49726411 40.87236757 -12.51228214 37.59435822 -12.53405762 34.31616211 C-12.56144974 30.13719066 -12.56972845 25.95859534 -12.56404448 21.77954245 C-12.56523339 20.24424051 -12.573192 18.70892572 -12.58861589 17.17370081 C-12.6084651 15.10209783 -12.60373601 13.03196267 -12.59277344 10.96032715 C-12.59646061 9.79886799 -12.60014778 8.63740883 -12.60394669 7.44075394 C-12.11175537 4.48101807 -12.11175537 4.48101807 -10.58867645 2.10612488 C-7.12950926 -0.16343317 -4.00084776 -0.06050567 0 0 Z " fill="#E4F7FE" transform="translate(55.11175537109375,128.51898193359375)"/>
<path d="M0 0 C67.32 0 134.64 0 204 0 C204.04125 26.19375 204.0825 52.3875 204.125 79.375 C204.14320801 87.65770996 204.16141602 95.94041992 204.18017578 104.47412109 C204.18920898 114.55786133 204.18920898 114.55786133 204.19088745 119.27261353 C204.19275712 122.57838606 204.20027725 125.8840949 204.21115112 129.18984985 C204.22481835 133.4002571 204.22899182 137.61057106 204.22614455 141.82099843 C204.22674037 143.37014831 204.2307363 144.9193013 204.23843026 146.46843219 C204.24830886 148.5534867 204.24600578 150.63817398 204.24050903 152.72323608 C204.24235262 153.89391317 204.24419621 155.06459026 204.24609566 156.27074242 C204 159 204 159 202 161 C199.32917461 161.19327148 196.76245426 161.26045949 194.09078979 161.24050903 C192.85091016 161.24307231 192.85091016 161.24307231 191.58598244 161.24568737 C188.80056182 161.24899645 186.0153791 161.23795535 183.22998047 161.22705078 C181.23956305 161.22648697 179.24914521 161.22680263 177.25872803 161.22793579 C171.8416277 161.22851149 166.42461528 161.21672209 161.00753546 161.20278788 C155.35139247 161.19031665 149.69524764 161.18911287 144.03909302 161.18673706 C133.3222684 161.18051165 122.60548441 161.16408653 111.88867772 161.14403808 C97.41136069 161.11754043 82.93403261 161.10671501 68.45669746 161.09503365 C45.63776786 161.07620666 22.818924 161.03636804 0 161 C0 107.87 0 54.74 0 0 Z " fill="#E5F7FE" transform="translate(264,307)"/>
<path d="M0 0 C67.32 0 134.64 0 204 0 C204 53.13 204 106.26 204 161 C153.42417017 161.08060607 153.42417017 161.08060607 132.29296875 161.09765625 C117.68016157 161.10954131 103.06737738 161.12354206 88.45458984 161.15087891 C77.81400437 161.17077532 67.17343749 161.18370751 56.53283393 161.18817699 C50.89554474 161.19079074 45.25830873 161.1969595 39.62103653 161.21146011 C34.32044009 161.22498487 29.019919 161.22923304 23.71930695 161.22621536 C21.76894853 161.22676782 19.81858772 161.23077554 17.86824417 161.23841095 C15.21513874 161.2482924 12.56232165 161.24599396 9.90921021 161.24050903 C8.7389914 161.24924756 8.7389914 161.24924756 7.5451318 161.25816262 C2.22824242 161.22824242 2.22824242 161.22824242 0 159 C-0.24609566 156.27074242 -0.24609566 156.27074242 -0.24050903 152.72323608 C-0.24222107 152.07381546 -0.24393311 151.42439484 -0.24569702 150.7552948 C-0.24901929 148.56250184 -0.23794144 146.37001134 -0.22705078 144.17724609 C-0.22643841 142.5850456 -0.22670458 140.99284455 -0.2277813 139.4006443 C-0.22823389 135.12645073 -0.21661977 130.85236853 -0.20256042 126.57820129 C-0.19119309 122.57141763 -0.19063542 118.56466142 -0.18920898 114.55786133 C-0.17870315 102.83022606 -0.15078099 91.10261164 -0.125 79.375 C-0.08375 53.18125 -0.0425 26.9875 0 0 Z " fill="#E5F7FE" transform="translate(44,307)"/>
<path d="M0 0 C1.08667969 0.02707031 2.17335938 0.05414063 3.29296875 0.08203125 C4.54013672 0.13423828 4.54013672 0.13423828 5.8125 0.1875 C5.85117188 1.18330078 5.85117188 1.18330078 5.890625 2.19921875 C6.16291677 6.43830647 6.45945571 9.53371427 8.5 13.3125 C10.71995675 15.41644683 10.71995675 15.41644683 13.8125 15.75 C16.80565651 15.3569329 16.80565651 15.3569329 19.125 13.875 C21.78350935 9.6410777 21.64316756 5.0981408 21.8125 0.1875 C24.7825 0.1875 27.7525 0.1875 30.8125 0.1875 C30.83828125 1.01894531 30.8640625 1.85039062 30.890625 2.70703125 C30.94734375 3.79371094 31.0040625 4.88039063 31.0625 6 C31.10890625 7.07894531 31.1553125 8.15789062 31.203125 9.26953125 C31.55826245 12.25799256 31.55826245 12.25799256 33.6328125 14.0859375 C36.9237906 15.74911998 39.31313735 15.02993916 42.8125 14.1875 C45.49342691 11.50657309 45.19920257 9.79582637 45.4375 6.0625 C45.51226562 4.96679688 45.58703125 3.87109375 45.6640625 2.7421875 C45.71304688 1.89914062 45.76203125 1.05609375 45.8125 0.1875 C48.7825 0.1875 51.7525 0.1875 54.8125 0.1875 C54.83828125 0.93515625 54.8640625 1.6828125 54.890625 2.453125 C55.17858954 8.4699279 55.17858954 8.4699279 57.4375 13.9375 C60.94171872 15.78182564 63.07241287 15.27552535 66.8125 14.1875 C69.64029452 11.25399353 70.23616591 8.94777817 70.5 4.9375 C70.56574219 4.04546875 70.63148438 3.1534375 70.69921875 2.234375 C70.73660156 1.55890625 70.77398437 0.8834375 70.8125 0.1875 C73.4525 0.1875 76.0925 0.1875 78.8125 0.1875 C78.87308594 0.86296875 78.93367188 1.5384375 78.99609375 2.234375 C79.07988281 3.12640625 79.16367188 4.0184375 79.25 4.9375 C79.33121094 5.81921875 79.41242188 6.7009375 79.49609375 7.609375 C79.77488465 9.88100452 80.20040577 11.98601823 80.8125 14.1875 C82.24784841 14.4101746 83.68595525 14.61511906 85.125 14.8125 C85.92550781 14.92851562 86.72601563 15.04453125 87.55078125 15.1640625 C90.09973215 15.40283407 90.09973215 15.40283407 92.8125 13.1875 C93.61791207 10.07938713 93.61791207 10.07938713 94 6.5625 C94.15855469 5.37398438 94.31710938 4.18546875 94.48046875 2.9609375 C94.59003906 2.04570312 94.69960937 1.13046875 94.8125 0.1875 C97.4525 0.1875 100.0925 0.1875 102.8125 0.1875 C102.83828125 0.85136719 102.8640625 1.51523437 102.890625 2.19921875 C103.16291677 6.43830647 103.45945571 9.53371427 105.5 13.3125 C107.71995675 15.41644683 107.71995675 15.41644683 110.8125 15.75 C113.80565651 15.3569329 113.80565651 15.3569329 116.125 13.875 C118.78350935 9.6410777 118.64316756 5.0981408 118.8125 0.1875 C120.91554477 0.0794977 123.02016909 0.00191013 125.125 -0.0625 C126.88263672 -0.13210938 126.88263672 -0.13210938 128.67578125 -0.203125 C131.8125 0.1875 131.8125 0.1875 133.48473549 1.91304016 C135.00656949 4.51994093 135.18937509 5.97211889 135.19345093 8.96948242 C135.2019104 9.928414 135.21036987 10.88734558 135.21908569 11.87533569 C135.20997665 13.44331406 135.20997665 13.44331406 135.20068359 15.04296875 C135.20856903 16.70206772 135.20856903 16.70206772 135.21661377 18.39468384 C135.22982972 22.0549324 135.22106969 25.71474693 135.2109375 29.375 C135.21295777 31.91560957 135.21586881 34.45621859 135.21963501 36.99682617 C135.22406054 42.323141 135.21790553 47.64929991 135.20361328 52.97558594 C135.18728695 59.13094304 135.19257559 65.28600202 135.2090925 71.44135189 C135.22435303 77.36592527 135.22272992 83.29040611 135.2139473 89.21499634 C135.21194355 91.73483319 135.21441066 94.25467762 135.22138596 96.77450562 C135.22898976 100.29388696 135.21741046 103.81269285 135.20068359 107.33203125 C135.20675629 108.37735016 135.21282898 109.42266907 135.21908569 110.49966431 C135.20639648 111.93806168 135.20639648 111.93806168 135.19345093 113.40551758 C135.19231985 114.23731033 135.19118877 115.06910309 135.19002342 115.92610168 C134.70445263 118.83471317 133.95309784 120.15536045 131.8125 122.1875 C129.29653931 122.68807125 129.29653931 122.68807125 126.23291016 122.68870544 C125.07196838 122.69853958 123.91102661 122.70837372 122.71490479 122.71850586 C121.44000183 122.70883789 120.16509888 122.69916992 118.8515625 122.68920898 C117.49639322 122.69299168 116.14122779 122.69849131 114.78607178 122.70558167 C111.10418328 122.71956045 107.42276082 122.70834996 103.74089813 122.69187045 C99.89057535 122.67803525 96.04028006 122.68447827 92.18994141 122.68800354 C85.72355627 122.69070689 79.25735663 122.6772195 72.79101562 122.65405273 C65.31157347 122.6274421 57.83244149 122.62569537 50.35296822 122.6374411 C43.16241608 122.64821478 35.97197631 122.64203507 28.78143311 122.62788582 C25.71927235 122.62212242 22.65719372 122.62221145 19.59503174 122.62695122 C15.99000018 122.6317184 12.38530891 122.62163054 8.7803421 122.59999657 C6.82360969 122.59176383 4.86683275 122.5982849 2.91009521 122.60519409 C1.74915344 122.59528946 0.58821167 122.58538483 -0.60791016 122.57518005 C-1.61890778 122.57275016 -2.6299054 122.57032026 -3.67153931 122.56781673 C-6.1875 122.1875 -6.1875 122.1875 -8.01241493 120.95979404 C-9.54116734 118.65408967 -9.564773 117.2030421 -9.56845093 114.44311523 C-9.5769104 113.46728485 -9.58536987 112.49145447 -9.59408569 111.48605347 C-9.588013 110.41686676 -9.58194031 109.34768005 -9.57568359 108.24609375 C-9.58094055 107.11906036 -9.58619751 105.99202698 -9.59161377 104.83084106 C-9.60484655 101.09542084 -9.59606376 97.36042476 -9.5859375 93.625 C-9.58795728 91.03572508 -9.59086792 88.44645071 -9.59463501 85.85717773 C-9.59906283 80.42653473 -9.59289752 74.99605194 -9.57861328 69.56542969 C-9.56228637 63.28567543 -9.5675748 57.00621336 -9.5840925 50.72646618 C-9.59934255 44.68707932 -9.59773393 38.64783551 -9.5889473 32.60842896 C-9.58694184 30.03752604 -9.58941659 27.46661569 -9.59638596 24.89572144 C-9.6039797 21.30658025 -9.59242466 17.71800513 -9.57568359 14.12890625 C-9.58175629 13.05971954 -9.58782898 11.99053284 -9.59408569 10.88894653 C-9.58562622 9.91311615 -9.57716675 8.93728577 -9.56845093 7.93188477 C-9.56731985 7.08312271 -9.56618877 6.23436066 -9.56502342 5.35987854 C-8.60735775 -0.15080563 -4.88007485 -0.15742177 0 0 Z " fill="#E0E1E2" transform="translate(87.1875,327.8125)"/>
<path d="M0 0 C14.80827096 11.37382257 23.80073036 26.50036445 26.34375 45.1171875 C27.58669794 64.86093745 21.24193672 81.4324128 8.4375 96.3359375 C-2.01631058 107.47524385 -16.84603369 114.77962157 -32.16015625 115.48828125 C-52.48731293 115.90073567 -68.22999053 111.67958901 -83.46484375 97.453125 C-96.85937588 83.17517453 -102.25854194 66.1214374 -101.9296875 46.79296875 C-101.26696883 30.66790815 -93.12321969 16.1126535 -81.65625 5.1171875 C-58.55815292 -16.11938531 -25.54019539 -18.10349144 0 0 Z " fill="#FEDA2F" transform="translate(187.65625,161.8828125)"/>
<path d="M0 0 C0 9.57 0 19.14 0 29 C-2.51625 29.515625 -5.0325 30.03125 -7.625 30.5625 C-22.96053717 34.03475285 -35.97634993 41.0989315 -44.875 54.4375 C-52.58073932 67.41367424 -55.41086381 81.91688199 -52.17578125 96.7890625 C-51.21194094 99.90631555 -50.15324481 102.94853107 -49 106 C-48.34 107.98 -47.68 109.96 -47 112 C-55.25 116.62 -63.5 121.24 -72 126 C-82.76723677 115.23276323 -84.39583145 97.39217548 -84.5 82.9375 C-84.28203773 59.57893278 -75.33305309 39.8760631 -59.375 22.875 C-53.54264036 17.22265146 -46.96981236 13.09097682 -40 9 C-39.30390625 8.57976562 -38.6078125 8.15953125 -37.890625 7.7265625 C-25.72019231 0.99512849 -13.64288489 -0.60905736 0 0 Z " fill="#74D460" transform="translate(362,151)"/>
<path d="M0 0 C0 12.21 0 24.42 0 37 C-3.3 37.66 -6.6 38.32 -10 39 C-17.36922092 42.35720502 -21.94413081 47.59456602 -25.3125 54.8125 C-26.95865989 62.44469585 -26.58208867 69.96655582 -23 77 C-21.4644062 78.93286185 -19.88587996 80.6814729 -18.109375 82.39453125 C-17 84 -17 84 -17.21459961 85.80200195 C-18.2031992 88.56866719 -19.65069033 90.45584227 -21.45703125 92.7734375 C-22.15763672 93.6809375 -22.85824219 94.5884375 -23.58007812 95.5234375 C-24.31677734 96.46445313 -25.05347656 97.40546875 -25.8125 98.375 C-32.16754349 106.50054458 -32.16754349 106.50054458 -38 115 C-50.98957889 106.50149892 -59.19699746 92.93841286 -63 78 C-66.68929773 59.865283 -63.09101979 42.49549877 -53 27 C-39.59708872 9.43670548 -22.04949643 0 0 0 Z " fill="#73D561" transform="translate(150,150)"/>
<path d="M0 0 C1.07894531 0.03480469 2.15789062 0.06960938 3.26953125 0.10546875 C4.35621094 0.13253906 5.44289063 0.15960938 6.5625 0.1875 C7.80966797 0.23970703 7.80966797 0.23970703 9.08203125 0.29296875 C9.12070313 1.28876953 9.12070313 1.28876953 9.16015625 2.3046875 C9.43244802 6.54377522 9.72898696 9.63918302 11.76953125 13.41796875 C13.989488 15.52191558 13.989488 15.52191558 17.08203125 15.85546875 C20.07518776 15.46240165 20.07518776 15.46240165 22.39453125 13.98046875 C25.0530406 9.74654645 24.91269881 5.20360955 25.08203125 0.29296875 C28.05203125 0.29296875 31.02203125 0.29296875 34.08203125 0.29296875 C34.1078125 1.12441406 34.13359375 1.95585937 34.16015625 2.8125 C34.216875 3.89917969 34.27359375 4.98585938 34.33203125 6.10546875 C34.3784375 7.18441406 34.42484375 8.26335937 34.47265625 9.375 C34.8277937 12.36346131 34.8277937 12.36346131 36.90234375 14.19140625 C40.19332185 15.85458873 42.5826686 15.13540791 46.08203125 14.29296875 C48.76295816 11.61204184 48.46873382 9.90129512 48.70703125 6.16796875 C48.78179687 5.07226562 48.8565625 3.9765625 48.93359375 2.84765625 C48.98257813 2.00460937 49.0315625 1.1615625 49.08203125 0.29296875 C52.05203125 0.29296875 55.02203125 0.29296875 58.08203125 0.29296875 C58.1078125 1.040625 58.13359375 1.78828125 58.16015625 2.55859375 C58.44812079 8.57539665 58.44812079 8.57539665 60.70703125 14.04296875 C64.21124997 15.88729439 66.34194412 15.3809941 70.08203125 14.29296875 C72.90982577 11.35946228 73.50569716 9.05324692 73.76953125 5.04296875 C73.83527344 4.1509375 73.90101563 3.25890625 73.96875 2.33984375 C74.00613281 1.664375 74.04351562 0.98890625 74.08203125 0.29296875 C76.72203125 0.29296875 79.36203125 0.29296875 82.08203125 0.29296875 C82.14261719 0.9684375 82.20320313 1.64390625 82.265625 2.33984375 C82.34941406 3.231875 82.43320313 4.12390625 82.51953125 5.04296875 C82.60074219 5.9246875 82.68195313 6.80640625 82.765625 7.71484375 C83.0444159 9.98647327 83.46993702 12.09148698 84.08203125 14.29296875 C85.51737966 14.51564335 86.9554865 14.72058781 88.39453125 14.91796875 C89.19503906 15.03398437 89.99554688 15.15 90.8203125 15.26953125 C93.3692634 15.50830282 93.3692634 15.50830282 96.08203125 13.29296875 C96.88744332 10.18485588 96.88744332 10.18485588 97.26953125 6.66796875 C97.42808594 5.47945313 97.58664063 4.2909375 97.75 3.06640625 C97.85957031 2.15117187 97.96914062 1.2359375 98.08203125 0.29296875 C100.72203125 0.29296875 103.36203125 0.29296875 106.08203125 0.29296875 C106.1078125 0.95683594 106.13359375 1.62070312 106.16015625 2.3046875 C106.43244802 6.54377522 106.72898696 9.63918302 108.76953125 13.41796875 C110.989488 15.52191558 110.989488 15.52191558 114.08203125 15.85546875 C117.07518776 15.46240165 117.07518776 15.46240165 119.39453125 13.98046875 C122.0530406 9.74654645 121.91269881 5.20360955 122.08203125 0.29296875 C124.20675701 0.23910246 126.33186777 0.20023804 128.45703125 0.16796875 C129.64039063 0.14476562 130.82375 0.1215625 132.04296875 0.09765625 C135.08203125 0.29296875 135.08203125 0.29296875 137.08203125 2.29296875 C137.08203125 12.52296875 137.08203125 22.75296875 137.08203125 33.29296875 C89.89203125 33.29296875 42.70203125 33.29296875 -5.91796875 33.29296875 C-5.91796875 23.39296875 -5.91796875 13.49296875 -5.91796875 3.29296875 C-2.91796875 0.29296875 -2.91796875 0.29296875 0 0 Z " fill="#024A61" transform="translate(83.91796875,327.70703125)"/>
<path d="M0 0 C3.96566678 0.65059581 7.37500378 1.86598208 11.0703125 3.43359375 C12.78541016 4.1596582 12.78541016 4.1596582 14.53515625 4.90039062 C15.71980469 5.40763672 16.90445313 5.91488281 18.125 6.4375 C19.31738281 6.94087891 20.50976562 7.44425781 21.73828125 7.96289062 C30.59810451 11.73206967 30.59810451 11.73206967 34 14 C30.18024083 27.15694825 19.22906286 37.52567967 7.80078125 44.46484375 C-6.94300514 52.546166 -25.09361916 54.99461457 -41.55078125 51.08984375 C-48.95141653 48.92531762 -55.65689407 45.34316194 -62 41 C-61.38667509 37.32426945 -59.81528136 35.14201485 -57.54296875 32.2265625 C-56.84236328 31.3190625 -56.14175781 30.4115625 -55.41992188 29.4765625 C-54.68322266 28.53554687 -53.94652344 27.59453125 -53.1875 26.625 C-46.83245651 18.49945542 -46.83245651 18.49945542 -41 10 C-40.29875 10.28875 -39.5975 10.5775 -38.875 10.875 C-30.64812343 14.09421257 -22.90148141 15.68380217 -14.1796875 13.1953125 C-7.64317265 10.2968579 -3.8807852 5.89827949 0 0 Z " fill="#FB695B" transform="translate(174,225)"/>
<path d="M0 0 C2.32663962 0.40300279 4.62551616 0.87988953 6.93212891 1.38452148 C7.71265625 1.5334082 8.49318359 1.68229492 9.29736328 1.83569336 C14.37167185 2.93319012 17.70795971 4.20174513 20.74462891 8.69702148 C20.72446638 14.26859895 18.6796967 19.6244725 16.93212891 24.88452148 C16.68398438 25.67793945 16.43583984 26.47135742 16.18017578 27.28881836 C14.75148063 31.61852808 13.55502704 34.90371222 9.74462891 37.69702148 C5.72403727 38.27139172 3.68094565 38.38693908 0.36962891 35.94702148 C-1.230987 33.73078408 -1.69451126 32.31436739 -2.25537109 29.69702148 C-14.8627122 36.77264267 -27.41708464 43.92862225 -39.89111328 51.23681641 C-49.04490974 56.59233556 -58.24915013 61.85691603 -67.46508789 67.10449219 C-68.5663501 67.73186279 -69.6676123 68.3592334 -70.80224609 69.00561523 C-71.87152344 69.61348877 -72.94080078 70.2213623 -74.04248047 70.84765625 C-76.24193066 72.11367716 -78.43033045 73.39903746 -80.60888672 74.70068359 C-82.20506836 75.65406616 -82.20506836 75.65406616 -83.83349609 76.62670898 C-85.2551709 77.4869165 -85.2551709 77.4869165 -86.70556641 78.36450195 C-90.34110512 80.26442251 -92.26097387 80.61240418 -96.25537109 79.69702148 C-98.69287109 78.19702148 -98.69287109 78.19702148 -100.25537109 75.69702148 C-100.86458645 72.89233193 -101.1209448 70.4496534 -100.25537109 67.69702148 C-97.01649473 64.85955199 -93.66160855 62.66568186 -89.89599609 60.59545898 C-88.35987671 59.74479858 -88.35987671 59.74479858 -86.79272461 58.87695312 C-85.70789795 58.28132568 -84.62307129 57.68569824 -83.50537109 57.07202148 C-76.23224277 53.03994684 -68.96764458 49.00724297 -61.81787109 44.75952148 C-54.62508867 40.48717771 -47.38228199 36.30566956 -40.13037109 32.13452148 C-35.83694544 29.658391 -31.54562664 27.17863989 -27.25537109 24.69702148 C-25.9540625 23.94582031 -25.9540625 23.94582031 -24.62646484 23.17944336 C-22.45615978 21.92266868 -20.2919982 20.65614566 -18.13037109 19.38452148 C-17.51532715 19.02994873 -16.9002832 18.67537598 -16.26660156 18.31005859 C-14.89454476 17.49525979 -13.56793474 16.60455311 -12.25537109 15.69702148 C-12.04284852 13.56170438 -12.04284852 13.56170438 -13.75537109 11.88452148 C-15.25537109 9.69702148 -15.25537109 9.69702148 -15.75537109 7.25952148 C-14.09818308 -1.23356707 -6.97172796 -0.93655709 0 0 Z " fill="#8E9DA9" transform="translate(397.25537109375,311.302978515625)"/>
<path d="M0 0 C1.27866943 -0.0112793 2.55733887 -0.02255859 3.87475586 -0.03417969 C5.28955305 -0.02640266 6.704348 -0.01821 8.11914062 -0.00964355 C9.61076542 -0.01506435 11.10238485 -0.02218677 12.59399414 -0.03088379 C16.6436169 -0.04912547 20.69283223 -0.04204633 24.74246216 -0.02936745 C28.97936099 -0.01924407 33.21622481 -0.02863128 37.453125 -0.03491211 C44.56842312 -0.04219046 51.68355521 -0.03259594 58.79882812 -0.0135498 C67.02641862 0.00821938 75.25361265 0.00116814 83.48119354 -0.02085543 C90.54373317 -0.03900413 97.6061534 -0.04157037 104.6687088 -0.03110075 C108.88752237 -0.02486287 113.10614956 -0.02403817 117.32495117 -0.0372467 C121.29119435 -0.04879699 125.25692611 -0.04079505 129.22311401 -0.01766968 C130.6791804 -0.01237811 132.1352898 -0.01390409 133.59133911 -0.02272034 C135.57780425 -0.03363977 137.56436338 -0.01752243 139.55078125 0 C141.21880798 0.00226215 141.21880798 0.00226215 142.92053223 0.00457001 C146.45660835 0.62804591 147.6398071 1.66388634 149.77539062 4.50793457 C150.27539062 8.00793457 150.27539062 8.00793457 149.77539062 11.50793457 C147.90830558 13.87290896 146.45477632 15.16824172 143.77539062 16.50793457 C141.8229654 16.61033574 139.86700476 16.64744349 137.91191101 16.65510559 C136.66267853 16.66226089 135.41344604 16.6694162 134.12635803 16.67678833 C132.73422266 16.67962872 131.34208702 16.68234043 129.94995117 16.68493652 C128.48980548 16.69120018 127.02966138 16.69784689 125.56951904 16.70484924 C121.59629353 16.72226764 117.62308005 16.73281322 113.64982581 16.74105477 C111.16828499 16.74620301 108.68674791 16.75227881 106.20520973 16.7585659 C98.44338211 16.77762008 90.68156401 16.7918509 82.91971749 16.80017787 C73.95558584 16.80995305 64.99170094 16.8362788 56.02765626 16.87667876 C49.10190293 16.90682284 42.17622041 16.9216451 35.25040275 16.92495888 C31.11252486 16.92731128 26.9749105 16.93629599 22.83710289 16.96142006 C18.94399235 16.98467623 15.05131931 16.98894416 11.15815735 16.97865868 C9.72990274 16.9781626 8.30162677 16.98450416 6.87343788 16.99821472 C4.92231224 17.01589622 2.97099718 17.00645436 1.01982117 16.99568176 C-0.61753479 16.99926429 -0.61753479 16.99926429 -2.28796864 17.0029192 C-5.92693135 16.38955489 -7.60720144 15.05894733 -10.22460938 12.50793457 C-10.85351562 10.50793457 -10.85351562 10.50793457 -10.78710938 8.50793457 C-10.78839844 7.84793457 -10.7896875 7.18793457 -10.79101562 6.50793457 C-9.21025368 0.92620965 -5.26396878 0.00713892 0 0 Z " fill="#E9F0F3" transform="translate(312.224609375,43.4920654296875)"/>
<path d="M0 0 C5.26484387 2.9349592 8.61775959 6.26725985 11.5625 11.5 C11.93246094 12.08265625 12.30242187 12.6653125 12.68359375 13.265625 C15.12530246 19.47299114 14.49975799 28.21959703 12.6875 34.5625 C9.42862704 41.59480482 4.07265745 47.23796512 -3.29296875 50.03125 C-10.900727 51.69414798 -19.63334523 51.57382515 -26.4375 47.5 C-33.4175965 42.6409273 -37.7166344 36.88125284 -39.4375 28.5 C-40.3772309 19.58025915 -38.21585248 12.85725056 -32.8125 5.75 C-23.93545681 -3.74688661 -11.62627287 -5.25847534 0 0 Z " fill="#EEF3F5" transform="translate(162.4375,189.5)"/>
<path d="M0 0 C25.0094603 -0.53337712 45.54660424 4.60072098 65 21 C65.825 21.62777344 66.65 22.25554687 67.5 22.90234375 C70.24235466 25.2033507 72.37772605 27.65350598 74.625 30.4375 C75.38039063 31.36433594 76.13578125 32.29117188 76.9140625 33.24609375 C78.83148722 35.77752526 80.58505533 38.15586625 82 41 C80.6922964 44.9231108 79.20177353 45.32987793 75.65234375 47.35546875 C74.57275391 47.97744141 73.49316406 48.59941406 72.38085938 49.24023438 C71.24455078 49.88283203 70.10824219 50.52542969 68.9375 51.1875 C67.79732422 51.84169922 66.65714844 52.49589844 65.48242188 53.16992188 C62.65947391 54.78809707 59.83196517 56.3976748 57 58 C53.19628906 53.24902344 53.19628906 53.24902344 51.4296875 51.0078125 C42.93054135 40.71487672 31.25924461 34.07553525 18 32 C15.56494763 31.78301513 13.12698616 31.59709255 10.6875 31.4375 C9.43324219 31.35371094 8.17898438 31.26992187 6.88671875 31.18359375 C5.45779297 31.09271484 5.45779297 31.09271484 4 31 C4 30.67 4 30.34 4 30 C5.65 30 7.3 30 9 30 C9 20.43 9 10.86 9 1 C6.03 1 3.06 1 0 1 C0 0.67 0 0.34 0 0 Z " fill="#65B6F0" transform="translate(353,150)"/>
<path d="M0 0 C3 1 3 1 4.24609375 3.01171875 C14.20579854 25.38023606 16.59720166 49.09681977 7.74072266 72.23144531 C6.09453756 76.36842355 4.48325853 80.27511221 2 84 C-4.08882416 82.40193652 -9.0664755 79.1388717 -14.375 75.875 C-15.30183594 75.31167969 -16.22867187 74.74835938 -17.18359375 74.16796875 C-19.45903155 72.78393957 -21.7309763 71.39451078 -24 70 C-23.21500599 65.93352888 -22.09247066 62.18261666 -20.71875 58.28125 C-17.20676619 47.13451876 -17.14113215 31.69842463 -22 21 C-22.38414062 20.34 -22.76828125 19.68 -23.1640625 19 C-24.22157082 16.46988665 -23.98958692 15.5312111 -23 13 C-21.31347656 11.67553711 -21.31347656 11.67553711 -19.140625 10.52734375 C-18.35429687 10.10259766 -17.56796875 9.67785156 -16.7578125 9.24023438 C-15.93023437 8.81033203 -15.10265625 8.38042969 -14.25 7.9375 C-12.62991278 7.0721677 -11.01011333 6.20629638 -9.390625 5.33984375 C-8.62556641 4.93878418 -7.86050781 4.53772461 -7.07226562 4.12451172 C-5.37391143 3.20290246 -3.7314972 2.17890157 -2.109375 1.12890625 C-1.41328125 0.75636719 -0.7171875 0.38382813 0 0 Z " fill="#F96A5D" transform="translate(434,193)"/>
<path d="M0 0 C3.561056 0.677773 6.28719079 2.14767029 9.421875 3.94140625 C10.44667969 4.52470703 11.47148437 5.10800781 12.52734375 5.70898438 C13.59082031 6.32064453 14.65429688 6.93230469 15.75 7.5625 C16.82894531 8.17802734 17.90789062 8.79355469 19.01953125 9.42773438 C21.68216602 10.94755688 24.34217696 12.47178344 27 14 C25.67159207 18.0135896 24.26024117 21.95380434 22.68359375 25.875 C18.6589129 38.38600791 20.46439046 51.99884336 25 64 C25.66 65.98 26.32 67.96 27 70 C18.75 74.62 10.5 79.24 2 84 C-8.76839628 73.23160372 -10.39373972 55.39302432 -10.5 40.9375 C-10.37756263 25.75526666 -6.81677546 13.47449283 0 0 Z " fill="#FEC702" transform="translate(288,193)"/>
<path d="M0 0 C1.19496094 -0.00386719 1.19496094 -0.00386719 2.4140625 -0.0078125 C3.24679687 -0.00007813 4.07953125 0.00765625 4.9375 0.015625 C5.77023437 0.00789063 6.60296875 0.00015625 7.4609375 -0.0078125 C8.25757813 -0.00523437 9.05421875 -0.00265625 9.875 0 C10.60589844 0.00225586 11.33679688 0.00451172 12.08984375 0.00683594 C13.9375 0.265625 13.9375 0.265625 15.9375 2.265625 C16.13081113 5.00117499 16.19975156 7.63508006 16.18041992 10.37133789 C16.18231827 11.20883072 16.18421661 12.04632355 16.18617249 12.90919495 C16.18988619 15.68565137 16.17916847 18.46184796 16.16796875 21.23828125 C16.16677727 23.1611681 16.16632372 25.08405554 16.1665802 27.00694275 C16.16501436 31.03957759 16.15671637 35.07212378 16.14331055 39.10473633 C16.12630917 44.28588019 16.12249647 49.46692664 16.12325573 54.64809513 C16.12298443 58.6190637 16.11750989 62.59001077 16.11025429 66.56097221 C16.10706194 68.47203852 16.1050989 70.38310727 16.10436058 72.2941761 C16.10220364 74.95926226 16.09347383 77.62424296 16.08276367 80.28930664 C16.08344345 81.48544586 16.08344345 81.48544586 16.08413696 82.70574951 C16.05197452 88.15115048 16.05197452 88.15115048 14.9375 89.265625 C11.7992655 89.51529067 8.64700387 89.45084291 5.5 89.453125 C4.17258789 89.47149414 4.17258789 89.47149414 2.81835938 89.49023438 C1.97208984 89.49216797 1.12582031 89.49410156 0.25390625 89.49609375 C-0.52525146 89.50020264 -1.30440918 89.50431152 -2.10717773 89.50854492 C-4.0625 89.265625 -4.0625 89.265625 -6.0625 87.265625 C-6.26101578 84.56579125 -6.33522785 81.96853085 -6.32128906 79.26757812 C-6.3247937 78.44144516 -6.32829834 77.61531219 -6.33190918 76.7641449 C-6.34073381 74.02497022 -6.3348748 71.28605244 -6.328125 68.546875 C-6.32947144 66.6488032 -6.3314118 64.75073174 -6.33392334 62.85266113 C-6.33687559 58.87130455 -6.33257371 54.89003759 -6.32324219 50.90869141 C-6.3118476 45.79709997 -6.31840653 40.68571855 -6.33038712 35.57413483 C-6.33760298 31.65373137 -6.33531905 27.73337796 -6.33013153 23.81297302 C-6.32879428 21.92785111 -6.33044539 20.0427247 -6.33509064 18.15760803 C-6.3401514 15.52617295 -6.33245208 12.89508128 -6.32128906 10.26367188 C-6.32736176 9.08695168 -6.32736176 9.08695168 -6.33355713 7.88645935 C-6.29021486 2.39100731 -5.78849621 0.01786573 0 0 Z " fill="#65B5F6" transform="translate(425.0625,358.734375)"/>
<path d="M0 0 C0.77915771 0.00410889 1.55831543 0.00821777 2.36108398 0.01245117 C3.20735352 0.01438477 4.05362305 0.01631836 4.92553711 0.01831055 C5.81047852 0.03055664 6.69541992 0.04280273 7.60717773 0.05541992 C8.49598633 0.05606445 9.38479492 0.05670898 10.30053711 0.05737305 C16.90446676 0.10270895 16.90446676 0.10270895 18.04467773 1.24291992 C18.14928492 3.25698121 18.18323601 5.27473903 18.18994141 7.29150391 C18.19632126 8.58632187 18.20270111 9.88113983 18.20927429 11.2151947 C18.21080285 12.63980065 18.21191687 14.06440709 18.21264648 15.48901367 C18.21585736 16.9401096 18.2192213 18.39120519 18.22273254 19.84230042 C18.22873019 22.88803864 18.2305718 25.93374847 18.22998047 28.97949219 C18.22987882 32.88827849 18.24353082 36.79688324 18.26075268 40.70562649 C18.27185444 43.70385072 18.27390024 46.70203082 18.27337074 49.70027351 C18.27455363 51.14161874 18.27899259 52.582965 18.28670311 54.02429008 C18.2964656 56.03781688 18.29237044 58.0513966 18.28759766 60.06494141 C18.28902267 61.212202 18.29044769 62.35946259 18.29191589 63.54148865 C18.04467773 66.24291992 18.04467773 66.24291992 16.04467773 68.24291992 C14.19702148 68.50170898 14.19702148 68.50170898 11.98217773 68.50854492 C10.7872168 68.51241211 10.7872168 68.51241211 9.56811523 68.51635742 C8.73538086 68.50862305 7.90264648 68.50088867 7.04467773 68.49291992 C5.79557617 68.50452148 5.79557617 68.50452148 4.52124023 68.51635742 C3.72459961 68.5137793 2.92795898 68.51120117 2.10717773 68.50854492 C1.3762793 68.50628906 0.64538086 68.5040332 -0.10766602 68.50170898 C-1.95532227 68.24291992 -1.95532227 68.24291992 -3.95532227 66.24291992 C-4.20928955 63.58618164 -4.20928955 63.58618164 -4.21411133 60.17260742 C-4.22041565 58.89788574 -4.22671997 57.62316406 -4.23321533 56.30981445 C-4.22963566 54.91251488 -4.22553372 53.51521656 -4.22094727 52.11791992 C-4.22229398 50.69067315 -4.22423456 49.26342683 -4.22674561 47.83618164 C-4.22969661 44.84346148 -4.22540009 41.85086061 -4.21606445 38.8581543 C-4.20466982 35.01775619 -4.21122944 31.1776376 -4.22320938 27.33724976 C-4.23042869 24.38962693 -4.22813975 21.44207061 -4.2229538 18.4944458 C-4.22161749 17.07822639 -4.22326436 15.66200099 -4.2279129 14.24578857 C-4.23297901 12.26827099 -4.22389134 10.29073231 -4.21411133 8.31323242 C-4.21252014 7.18675293 -4.21092896 6.06027344 -4.20928955 4.8996582 C-3.90609382 1.72794381 -3.30277936 0.41032157 0 0 Z " fill="#72D561" transform="translate(380.955322265625,379.757080078125)"/>
<path d="M0 0 C2.4375 1.5 2.4375 1.5 4 4 C4.60921535 6.80468955 4.86557371 9.24736809 4 12 C0.01615268 15.84324095 -4.92977896 18.47365388 -9.6875 21.25 C-10.45900391 21.70890625 -11.23050781 22.1678125 -12.02539062 22.640625 C-12.76337891 23.07375 -13.50136719 23.506875 -14.26171875 23.953125 C-14.93162842 24.34661133 -15.60153809 24.74009766 -16.29174805 25.14550781 C-18 26 -18 26 -20 26 C-20.0825 27.051875 -20.165 28.10375 -20.25 29.1875 C-21.07861851 33.39964409 -21.95290503 35.03525894 -25 38 C-29.54090054 40.99286627 -33.67767999 41.9580176 -39 41 C-44.29112204 38.25268663 -48.09375244 34.71874267 -50 29 C-50.56262929 23.14865543 -49.55107679 19.53998425 -46 15 C-43.625 12.5625 -43.625 12.5625 -40 11 C-37.93518499 11.10822479 -35.87251946 11.26003616 -33.8125 11.4375 C-25.63096655 11.7769466 -20.3582683 8.34127837 -13.66137695 3.91186523 C-8.92868866 0.83214711 -5.85910214 -0.83065752 0 0 Z " fill="#65B5F5" transform="translate(397,209)"/>
<path d="M0 0 C9.9 0 19.8 0 30 0 C30 14.45698774 27.18648267 29.72027599 19 42 C12.91117584 40.40193652 7.9335245 37.1388717 2.625 33.875 C1.69816406 33.31167969 0.77132813 32.74835938 -0.18359375 32.16796875 C-2.45903155 30.78393957 -4.7309763 29.39451078 -7 28 C-6.40123962 24.90216269 -5.71527572 22.02265719 -4.625 19.0625 C-2.62664269 12.83684837 -1.37000896 6.39337513 0 0 Z " fill="#F35445" transform="translate(417,235)"/>
<path d="M0 0 C3.69867251 1.31537297 6.44891315 2.91479265 9.5 5.375 C10.2321875 5.96023437 10.964375 6.54546875 11.71875 7.1484375 C12.4715625 7.75945312 13.224375 8.37046875 14 9 C14.82242187 9.62261719 15.64484375 10.24523437 16.4921875 10.88671875 C19.2327178 13.19610643 21.37518988 15.6503641 23.625 18.4375 C24.38039063 19.36433594 25.13578125 20.29117188 25.9140625 21.24609375 C27.83148722 23.77752526 29.58505533 26.15586625 31 29 C29.6922964 32.9231108 28.20177353 33.32987793 24.65234375 35.35546875 C23.57275391 35.97744141 22.49316406 36.59941406 21.38085938 37.24023438 C20.24455078 37.88283203 19.10824219 38.52542969 17.9375 39.1875 C16.79732422 39.84169922 15.65714844 40.49589844 14.48242188 41.16992188 C11.65947391 42.78809707 8.83196517 44.3976748 6 46 C5.05966919 44.8241333 5.05966919 44.8241333 4.1003418 43.62451172 C-1.37573371 36.78180432 -6.87863802 31.16742819 -14 26 C-12.47688504 20.55659483 -9.89682184 16.10880931 -7 11.3125 C-6.32324219 10.17458008 -6.32324219 10.17458008 -5.6328125 9.01367188 C-3.8121804 5.96222783 -1.97161966 2.95742949 0 0 Z " fill="#43A5F4" transform="translate(404,162)"/>
<path d="M0 0 C0 9.57 0 19.14 0 29 C-8.0625 30.8125 -8.0625 30.8125 -10.55883789 31.36254883 C-14.14061796 32.18733186 -17.4566271 33.1142367 -20.80859375 34.63671875 C-24 36 -24 36 -28 36 C-30.20755448 32.26146437 -32.38744655 28.50752268 -34.5625 24.75 C-35.19091797 23.68652344 -35.81933594 22.62304688 -36.46679688 21.52734375 C-37.35141602 19.99013672 -37.35141602 19.99013672 -38.25390625 18.421875 C-38.80377197 17.47924805 -39.3536377 16.53662109 -39.92016602 15.56542969 C-41 13 -41 13 -40.86303711 10.78222656 C-38.62407882 6.15863519 -31.04625119 4.56030856 -26.52563477 2.93798828 C-17.40200917 -0.16076753 -9.61895372 -0.42941758 0 0 Z " fill="#3EBE52" transform="translate(362,151)"/>
<path d="M0 0 C9.9 0 19.8 0 30 0 C30.66 4.29 31.32 8.58 32 13 C33.47508203 17.35729599 33.47508203 17.35729599 35.09765625 21.66015625 C36 24 36 24 37 28 C24.625 34.93 24.625 34.93 12 42 C4.4693916 34.4693916 1.67637123 22.27362702 0 12 C0 8.04 0 4.08 0 0 Z " fill="#FEDA2F" transform="translate(278,235)"/>
<path d="M0 0 C1.19496094 -0.00386719 1.19496094 -0.00386719 2.4140625 -0.0078125 C3.24679687 -0.00007813 4.07953125 0.00765625 4.9375 0.015625 C5.77023437 0.00789063 6.60296875 0.00015625 7.4609375 -0.0078125 C8.25757813 -0.00523437 9.05421875 -0.00265625 9.875 0 C10.60589844 0.00225586 11.33679688 0.00451172 12.08984375 0.00683594 C13.9375 0.265625 13.9375 0.265625 15.9375 2.265625 C16.19146729 4.16308594 16.19146729 4.16308594 16.19628906 6.5 C16.20259338 7.37430664 16.20889771 8.24861328 16.21539307 9.14941406 C16.2113446 10.09526367 16.20729614 11.04111328 16.203125 12.015625 C16.20503845 12.98467773 16.2069519 13.95373047 16.20892334 14.95214844 C16.21028579 17.00325785 16.20658518 19.05437586 16.19824219 21.10546875 C16.18754359 24.25280039 16.19813554 27.3995612 16.2109375 30.546875 C16.20961592 32.5364596 16.20705355 34.52604384 16.203125 36.515625 C16.20717346 37.46147461 16.21122192 38.40732422 16.21539307 39.38183594 C16.20908875 40.25614258 16.20278442 41.13044922 16.19628906 42.03125 C16.19390228 43.18802246 16.19390228 43.18802246 16.19146729 44.36816406 C15.9375 46.265625 15.9375 46.265625 13.9375 48.265625 C12.08984375 48.52441406 12.08984375 48.52441406 9.875 48.53125 C8.68003906 48.53511719 8.68003906 48.53511719 7.4609375 48.5390625 C6.62820313 48.53132813 5.79546875 48.52359375 4.9375 48.515625 C3.68839844 48.52722656 3.68839844 48.52722656 2.4140625 48.5390625 C1.61742187 48.53648437 0.82078125 48.53390625 0 48.53125 C-0.73089844 48.52899414 -1.46179688 48.52673828 -2.21484375 48.52441406 C-4.0625 48.265625 -4.0625 48.265625 -6.0625 46.265625 C-6.31646729 44.36816406 -6.31646729 44.36816406 -6.32128906 42.03125 C-6.32759338 41.15694336 -6.33389771 40.28263672 -6.34039307 39.38183594 C-6.3363446 38.43598633 -6.33229614 37.49013672 -6.328125 36.515625 C-6.33003845 35.54657227 -6.3319519 34.57751953 -6.33392334 33.57910156 C-6.33528579 31.52799215 -6.33158518 29.47687414 -6.32324219 27.42578125 C-6.31254359 24.27844961 -6.32313554 21.1316888 -6.3359375 17.984375 C-6.33461592 15.9947904 -6.33205355 14.00520616 -6.328125 12.015625 C-6.33217346 11.06977539 -6.33622192 10.12392578 -6.34039307 9.14941406 C-6.33408875 8.27510742 -6.32778442 7.40080078 -6.32128906 6.5 C-6.31969788 5.72881836 -6.31810669 4.95763672 -6.31646729 4.16308594 C-5.78780716 0.2133176 -3.42758193 0.01057896 0 0 Z " fill="#FEDA2D" transform="translate(341.0625,399.734375)"/>
<path d="M0 0 C1.17079102 0.01160156 1.17079102 0.01160156 2.36523438 0.0234375 C3.53022461 0.01183594 3.53022461 0.01183594 4.71875 0 C8.62825605 0.01346944 10.60720469 0.05975105 13.92773438 2.2734375 C14.30004883 4.671875 14.30004883 4.671875 14.29101562 7.6484375 C14.29037109 8.71578125 14.28972656 9.783125 14.2890625 10.8828125 C14.27294922 12.00171875 14.25683594 13.120625 14.24023438 14.2734375 C14.24506836 15.95179688 14.24506836 15.95179688 14.25 17.6640625 C14.19458468 26.0065872 14.19458468 26.0065872 11.92773438 28.2734375 C9.97241211 28.51635742 9.97241211 28.51635742 7.61132812 28.50390625 C6.76505859 28.50197266 5.91878906 28.50003906 5.046875 28.49804688 C3.71946289 28.47967773 3.71946289 28.47967773 2.36523438 28.4609375 C1.47642578 28.46029297 0.58761719 28.45964844 -0.328125 28.45898438 C-6.93205465 28.41364847 -6.93205465 28.41364847 -8.07226562 27.2734375 C-8.32527801 23.13381467 -8.25749111 18.98237754 -8.25976562 14.8359375 C-8.27201172 13.66482422 -8.28425781 12.49371094 -8.296875 11.28710938 C-8.29880859 10.17013672 -8.30074219 9.05316406 -8.30273438 7.90234375 C-8.30684326 6.87181885 -8.31095215 5.84129395 -8.31518555 4.77954102 C-7.80495131 -0.4843328 -4.52440775 0.01561487 0 0 Z " fill="#FB6A5D" transform="translate(301.072265625,419.7265625)"/>
<path d="M0 0 C2.16015625 1.3671875 2.16015625 1.3671875 4 4 C4.63015049 7.65155221 4.60329024 11.23998488 4.5625 14.9375 C4.58634766 15.92685547 4.61019531 16.91621094 4.63476562 17.93554688 C4.62506466 22.7439895 4.59022152 25.208455 1.65234375 29.1484375 C-1 31 -1 31 -4 31.6875 C-7.41443599 30.90502509 -8.80071372 29.66318712 -10.95263672 26.94116211 C-12.99818265 23.14998829 -12.67639783 19.1455631 -12.5625 14.9375 C-12.57345703 14.05255859 -12.58441406 13.16761719 -12.59570312 12.25585938 C-12.54786648 8.00477601 -12.38166171 5.61112703 -10.08984375 1.94140625 C-6.51299316 -1.38138767 -4.68173352 -1.21725071 0 0 Z " fill="#DEE1E1" transform="translate(202,313)"/>
<path d="M0 0 C2.16015625 1.3671875 2.16015625 1.3671875 4 4 C4.63015049 7.65155221 4.60329024 11.23998488 4.5625 14.9375 C4.58634766 15.92685547 4.61019531 16.91621094 4.63476562 17.93554688 C4.62506466 22.7439895 4.59022152 25.208455 1.65234375 29.1484375 C-1 31 -1 31 -4 31.6875 C-7.41443599 30.90502509 -8.80071372 29.66318712 -10.95263672 26.94116211 C-12.99818265 23.14998829 -12.67639783 19.1455631 -12.5625 14.9375 C-12.57345703 14.05255859 -12.58441406 13.16761719 -12.59570312 12.25585938 C-12.54786648 8.00477601 -12.38166171 5.61112703 -10.08984375 1.94140625 C-6.51299316 -1.38138767 -4.68173352 -1.21725071 0 0 Z " fill="#DEE1E1" transform="translate(105,313)"/>
<path d="M0 0 C3.73850881 1.46289475 4.79502677 2.67453593 6.875 6.125 C7.40791204 9.49294481 7.3431968 12.78581694 7.25 16.1875 C7.24871094 17.08533203 7.24742187 17.98316406 7.24609375 18.90820312 C7.14382615 26.54986562 7.14382615 26.54986562 4.875 30.125 C1.38375983 32.45249345 -0.01722251 32.62799316 -4.125 32.125 C-6.42775556 30.2579009 -7.80323871 28.76852259 -9.125 26.125 C-9.46994411 22.69532766 -9.49558913 19.25725594 -9.5625 15.8125 C-9.60826172 14.86181641 -9.65402344 13.91113281 -9.70117188 12.93164062 C-9.8110438 6.09569601 -9.8110438 6.09569601 -7.86816406 3.34667969 C-5.23753976 1.03897145 -3.51043307 0.14041732 0 0 Z " fill="#DFE1E1" transform="translate(175.125,311.875)"/>
<path d="M0 0 C0.66 -0.02191406 1.32 -0.04382813 2 -0.06640625 C5.32931159 0.98050618 6.2696705 2.56098545 8 5.5625 C8.57522358 8.90969337 8.55893517 12.17372759 8.5 15.5625 C8.51546875 16.45195312 8.5309375 17.34140625 8.546875 18.2578125 C8.52174439 22.46718892 8.36951305 24.94108235 6.18359375 28.6171875 C3.10669269 31.35832655 1.09124202 31.70605235 -3 31.5625 C-5.6875 29.74609375 -5.6875 29.74609375 -8 26.5625 C-8.71159041 22.85937901 -8.65311749 19.2594011 -8.5625 15.5 C-8.57345703 14.50677734 -8.58441406 13.51355469 -8.59570312 12.49023438 C-8.52346958 5.33911351 -8.52346958 5.33911351 -6.21484375 1.9140625 C-3.9141779 0.51012884 -2.67383429 -0.00522233 0 0 Z " fill="#DFE1E1" transform="translate(150,312.4375)"/>
<path d="M0 0 C2.4375 1.5 2.4375 1.5 4 4 C4.60921535 6.80468955 4.86557371 9.24736809 4 12 C0.01615268 15.84324095 -4.92977896 18.47365388 -9.6875 21.25 C-10.45900391 21.70890625 -11.23050781 22.1678125 -12.02539062 22.640625 C-12.76337891 23.07375 -13.50136719 23.506875 -14.26171875 23.953125 C-14.93162842 24.34661133 -15.60153809 24.74009766 -16.29174805 25.14550781 C-18 26 -18 26 -20 26 C-20.17015625 25.40832031 -20.3403125 24.81664062 -20.515625 24.20703125 C-20.75796875 23.41683594 -21.0003125 22.62664062 -21.25 21.8125 C-21.48203125 21.03519531 -21.7140625 20.25789063 -21.953125 19.45703125 C-23.20208037 16.52571435 -24.93144581 14.4061901 -27 12 C-26.50072998 11.70754395 -26.00145996 11.41508789 -25.48706055 11.11376953 C-23.2199984 9.78510193 -20.95374197 8.45506602 -18.6875 7.125 C-17.90181641 6.66480469 -17.11613281 6.20460937 -16.30664062 5.73046875 C-15.1706543 5.06337891 -15.1706543 5.06337891 -14.01171875 4.3828125 C-13.31522217 3.97434082 -12.61872559 3.56586914 -11.90112305 3.14501953 C-7.4023145 0.43545075 -5.39037375 -0.56740776 0 0 Z " fill="#8E9DA9" transform="translate(397,209)"/>
<path d="M0 0 C0.7734375 0.0103125 1.546875 0.020625 2.34375 0.03125 C3.1171875 0.0209375 3.890625 0.010625 4.6875 0 C7.66355672 0.73323137 8.27160041 1.94182714 9.84375 4.53125 C10.48323609 8.34139738 10.35326478 12.17300689 10.34375 16.03125 C10.37210938 17.07667969 10.40046875 18.12210937 10.4296875 19.19921875 C10.44919272 26.81600665 10.44919272 26.81600665 7.5390625 30.25390625 C3.86488493 31.99514692 1.71740148 31.6072643 -2.15625 30.53125 C-4.45771036 28.84597849 -5.08239644 27.98565844 -5.54443359 25.14282227 C-5.54781738 24.22041748 -5.55120117 23.2980127 -5.5546875 22.34765625 C-5.55855469 21.33767578 -5.56242187 20.32769531 -5.56640625 19.28710938 C-5.55480469 18.23330078 -5.54320313 17.17949219 -5.53125 16.09375 C-5.54285156 15.04380859 -5.55445312 13.99386719 -5.56640625 12.91210938 C-5.56253906 11.90083984 -5.55867188 10.88957031 -5.5546875 9.84765625 C-5.55130371 8.92412354 -5.54791992 8.00059082 -5.54443359 7.04907227 C-4.9839468 3.41366326 -3.69218532 0.90966885 0 0 Z " fill="#E0E1E2" transform="translate(123.15625,312.46875)"/>
<path d="M0 0 C3.44186104 0.0383037 4.63382591 0.2432899 7.6875 2.0625 C10.86711152 5.53116712 11.79969939 6.9457667 11.625 11.75 C10.49656131 16.34435751 8.68413812 18.84522281 4.9375 21.6875 C1.57327848 22.64870615 -0.87702719 22.14094946 -4.25 21.3125 C-6.95567626 19.48910948 -8.78728718 18.23792564 -10.25 15.3125 C-10.67068924 12.25348826 -10.74028455 9.36491674 -10.25 6.3125 C-7.8125 3.3125 -7.8125 3.3125 -5.25 1.3125 C-3.69014791 -0.24735209 -2.16093902 0.06797656 0 0 Z " fill="#F4675B" transform="translate(63.25,40.6875)"/>
<path d="M0 0 C3.58552881 1.63687185 4.79315055 2.68972583 7 6 C7.73965025 10.59271203 7.60961194 14.02462089 5.125 18 C1.44993357 21.45888605 -1.61085733 21.46295252 -6.515625 21.40625 C-9 21 -9 21 -12.0625 18.4375 C-14.19814769 14.64844765 -15.07770956 12.35173542 -15 8 C-11.40473532 1.19467756 -7.62988903 -0.98354038 0 0 Z " fill="#F9D62E" transform="translate(113,41)"/>
<path d="M0 0 C3.0717718 1.71077974 5.40485654 3.80971307 7 7 C7.22455057 11.96940167 6.68307821 15.1632292 3.5 19.0625 C0.19169363 21.35041308 -2.91537561 21.71388361 -6.87890625 21.5 C-10.30530659 20.69230342 -11.92287849 18.72622198 -14 16 C-15.53214888 12.93570224 -15.22938548 10.3834358 -15 7 C-11.79045747 0.12240887 -7.13607058 -1.22784179 0 0 Z " fill="#6FD260" transform="translate(159,41)"/>
<path d="M0 0 C3.33253442 1.24607809 3.94039621 1.91059432 6 5 C6.57977821 8.80997107 6.27372261 10.53365777 4.3125 13.875 C-0.87172077 17.20072653 -6.01758513 16.94983283 -12 16 C-15.3125 13.875 -15.3125 13.875 -17 11 C-17.81938858 7.0669348 -17.33592417 5.55187542 -15.25 2.125 C-10.40926496 -1.04009599 -5.63857931 -0.73681573 0 0 Z " fill="#FB6C5F" transform="translate(201,397)"/>
<path d="M0 0 C4.66666667 2.33333333 4.66666667 2.33333333 6 5 C6.29123466 8.34919863 6.36462337 10.35756835 4.6875 13.3125 C1.61194606 16.38805394 -1.79704536 16.21525817 -5.9375 16.3125 C-6.97777344 16.34988281 -8.01804688 16.38726562 -9.08984375 16.42578125 C-12.71080203 15.89600346 -13.797055 14.86586826 -16 12 C-17.0625 8.5625 -17.0625 8.5625 -17 5 C-13.27664318 -1.48139891 -6.70635624 -1.07016323 0 0 Z " fill="#67B6F5" transform="translate(140,374)"/>
<path d="M0 0 C3.33253442 1.24607809 3.94039621 1.91059432 6 5 C6.57977821 8.80997107 6.27372261 10.53365777 4.3125 13.875 C-0.87172077 17.20072653 -6.01758513 16.94983283 -12 16 C-15.3125 13.875 -15.3125 13.875 -17 11 C-17.81938858 7.0669348 -17.33592417 5.55187542 -15.25 2.125 C-10.40926496 -1.04009599 -5.63857931 -0.73681573 0 0 Z " fill="#67B6F5" transform="translate(140,397)"/>
<path d="M0 0 C2.9668205 1.33875648 3.87523351 2.35839841 6 5 C6.89003293 8.88378004 6.32486103 10.42524587 4.375 13.875 C-0.92350301 17.21109449 -6.91706006 17.23253849 -13 16 C-15.72732008 13.32162041 -16.84454287 11.74619424 -17.625 8 C-16.92349839 4.63279226 -15.83500968 2.96450827 -13.04296875 0.921875 C-8.80542677 -0.99028544 -4.50311862 -0.82723957 0 0 Z " fill="#FB6C5F" transform="translate(201,420)"/>
<path d="M0 0 C3.33253442 1.24607809 3.94039621 1.91059432 6 5 C6.375 7.9375 6.375 7.9375 6 11 C4.1329009 13.30275556 2.64352259 14.67823871 0 16 C-5.65299688 16.58450485 -10.39548771 17.04910419 -15.25 13.875 C-17.33592417 10.44812458 -17.81938858 8.9330652 -17 5 C-13.05164352 -1.48658564 -6.84322025 -0.89423098 0 0 Z " fill="#67B6F5" transform="translate(201,374)"/>
<path d="M0 0 C2.9668205 1.33875648 3.87523351 2.35839841 6 5 C6.89715672 8.91486569 6.33576621 10.42795386 4.3125 13.875 C-0.87172077 17.20072653 -6.01758513 16.94983283 -12 16 C-15.77080649 13.58099206 -16.6981192 12.31729804 -17.6875 8 C-16.92301828 4.66407978 -15.82341497 2.95602568 -13.04296875 0.921875 C-8.80542677 -0.99028544 -4.50311862 -0.82723957 0 0 Z " fill="#FB6C5F" transform="translate(140,420)"/>
<path d="M0 0 C3.25 1.5 3.25 1.5 5 4 C5.68374672 6.82769832 5.92198514 9.2231977 5 12 C2.32081261 14.79225401 0.64745116 15.89222355 -3.19140625 16.53125 C-4.30386719 16.5209375 -5.41632813 16.510625 -6.5625 16.5 C-7.67753906 16.5103125 -8.79257813 16.520625 -9.94140625 16.53125 C-13.62193595 15.89197537 -14.80518245 14.98243151 -17 12 C-17.78494003 9.22834967 -17.62579274 6.80171429 -17 4 C-13.06854168 -1.61636903 -6.18071085 -0.81954177 0 0 Z " fill="#FB6A5E" transform="translate(171,397)"/>
<path d="M0 0 C1.11246094 -0.0103125 2.22492188 -0.020625 3.37109375 -0.03125 C7.20995116 0.60777645 8.88331261 1.70774599 11.5625 4.5 C12.48448514 7.2768023 12.24624672 9.67230168 11.5625 12.5 C9.8125 15 9.8125 15 6.5625 16.5 C1.11780623 17.22194834 -3.65399407 17.32315658 -8.6875 15 C-10.79905949 11.98348644 -10.99686433 10.10546254 -11.00390625 6.5 C-9.38320605 0.77725172 -5.40650251 -0.05000234 0 0 Z " fill="#66B5F5" transform="translate(164.4375,373.5)"/>
<path d="M0 0 C1.11246094 -0.0103125 2.22492188 -0.020625 3.37109375 -0.03125 C7.20995116 0.60777645 8.88331261 1.70774599 11.5625 4.5 C12.48448514 7.2768023 12.24624672 9.67230168 11.5625 12.5 C9.8125 15 9.8125 15 6.5625 16.5 C1.11780623 17.22194834 -3.65399407 17.32315658 -8.6875 15 C-10.79905949 11.98348644 -10.99686433 10.10546254 -11.00390625 6.5 C-9.38320605 0.77725172 -5.40650251 -0.05000234 0 0 Z " fill="#66B5F5" transform="translate(103.4375,373.5)"/>
<path d="M0 0 C3.25 2.0625 3.25 2.0625 5 5 C5.5625 8.5625 5.5625 8.5625 5 12 C2.72500735 15.10934203 1.53301688 15.91451616 -2.3125 16.53125 C-3.529375 16.5209375 -4.74625 16.510625 -6 16.5 C-7.8253125 16.51546875 -7.8253125 16.51546875 -9.6875 16.53125 C-13.53301688 15.91451616 -14.72500735 15.10934203 -17 12 C-17.69182497 7.77218073 -17.44829471 5.7524947 -15.25 2.0625 C-10.32054558 -1.06580761 -5.6775565 -0.96455725 0 0 Z " fill="#67B6F5" transform="translate(110,420)"/>
<path d="M0 0 C3.25 1.5 3.25 1.5 5 4 C5.68374672 6.82769832 5.92198514 9.2231977 5 12 C2.32081261 14.79225401 0.64745116 15.89222355 -3.19140625 16.53125 C-4.30386719 16.5209375 -5.41632813 16.510625 -6.5625 16.5 C-7.67753906 16.5103125 -8.79257813 16.520625 -9.94140625 16.53125 C-13.61048636 15.89396405 -14.79199722 14.95280754 -17 12 C-17.69182497 7.77218073 -17.44829471 5.7524947 -15.25 2.0625 C-10.31201092 -1.07122384 -5.68882208 -0.82503635 0 0 Z " fill="#66B5F5" transform="translate(110,397)"/>
<path d="M0 0 C3.11937969 1.37252707 4.4897715 1.979543 6 5 C6.5743517 11.20299838 6.5743517 11.20299838 4.41796875 14.1953125 C1.17045003 16.61914715 -0.98158452 16.53405437 -5 16.5 C-6.8253125 16.51546875 -6.8253125 16.51546875 -8.6875 16.53125 C-12.53301688 15.91451616 -13.72500735 15.10934203 -16 12 C-16.69758716 7.73696737 -16.46334187 5.75093338 -14.1875 2.0625 C-9.53770103 -0.94619345 -5.39345733 -0.76123872 0 0 Z " fill="#FB6B5E" transform="translate(170,420)"/>
<path d="M0 0 C0.66 0.33 1.32 0.66 2 1 C-1.96 4.96 -5.92 8.92 -10 13 C-10 8.41771462 -7.08388033 6.1816619 -4 3 C-1.625 1.0625 -1.625 1.0625 0 0 Z " fill="#186384" transform="translate(24,13)"/>
</svg>
