<?xml version="1.0" encoding="UTF-8"?>
<svg version="1.1" xmlns="http://www.w3.org/2000/svg" width="512" height="512">
<path d="M0 0 C0.6522908 -0.0065712 1.3045816 -0.0131424 1.97663879 -0.01991272 C4.13978185 -0.03965412 6.30285531 -0.05131252 8.46606445 -0.0612793 C9.20570749 -0.06535482 9.94535053 -0.06943035 10.707407 -0.07362938 C14.62524766 -0.09449765 18.54305326 -0.10879382 22.4609375 -0.11816406 C26.49829275 -0.12920644 30.53509347 -0.16357828 34.57225323 -0.20333576 C37.68391405 -0.22955181 40.79544405 -0.23786047 43.90720558 -0.24144554 C45.39468934 -0.24630177 46.88216763 -0.25788832 48.36954308 -0.27648354 C62.97083573 -0.44762387 62.97083573 -0.44762387 68.6418457 4.17700195 C73.92722077 9.91864444 73.1086756 17.89652135 72.8918457 25.17700195 C72.87379883 26.33329102 72.85575195 27.48958008 72.8371582 28.6809082 C72.7903333 31.5138147 72.72476583 34.34496079 72.6418457 37.17700195 C73.33439453 37.35295898 74.02694336 37.52891602 74.74047852 37.71020508 C80.83569675 39.30751509 86.60594537 41.19112733 92.3918457 43.67700195 C93.09438477 43.97219727 93.79692383 44.26739258 94.52075195 44.5715332 C96.56452527 45.4322689 98.60383755 46.30271442 100.6418457 47.17700195 C101.32569336 47.46961914 102.00954102 47.76223633 102.71411133 48.0637207 C104.35711399 48.76715702 105.99954423 49.47193012 107.6418457 50.17700195 C108.07005615 49.73831787 108.4982666 49.29963379 108.93945312 48.84765625 C110.89739111 46.84794187 112.86325381 44.85619876 114.8293457 42.86450195 C115.83964844 41.8290625 115.83964844 41.8290625 116.87036133 40.77270508 C122.31121971 35.27876515 126.57434343 31.4459187 134.6418457 31.17700195 C141.67544552 32.56695795 145.96260547 35.66468825 150.80200195 40.78637695 C151.43617538 41.43141174 152.07034882 42.07644653 152.72373962 42.74102783 C154.73204977 44.78920154 156.71863586 46.85693268 158.7043457 48.92700195 C160.69780732 50.97830469 162.69560034 53.02526381 164.69566345 55.07012939 C165.93269146 56.33772086 167.16527849 57.60966899 168.39234924 58.88690186 C172.07176759 62.69160558 175.89880044 66.23404061 179.91993713 69.67630005 C185.97595995 74.95432998 190.30671523 79.95435796 190.9543457 88.11450195 C191.08322853 92.94265097 189.05134088 96.57952154 185.89550781 100.15625 C183.78490886 102.3287847 181.6328917 104.4476597 179.4543457 106.55200195 C178.70475586 107.28805664 177.95516602 108.02411133 177.18286133 108.7824707 C175.34249746 110.58766838 173.49548648 112.38545703 171.6418457 114.17700195 C172.14973633 115.20696289 172.65762695 116.23692383 173.1809082 117.2980957 C178.07923627 127.38239732 182.12557637 137.53495953 185.6418457 148.17700195 C186.39280518 148.18634766 187.14376465 148.19569336 187.91748047 148.20532227 C191.34708214 148.25927759 194.77535678 148.34287742 198.2043457 148.42700195 C199.38577148 148.44118164 200.56719727 148.45536133 201.78442383 148.4699707 C208.52196221 148.65869727 213.34187173 148.82319783 218.6418457 153.17700195 C223.89944168 159.81971487 223.20880605 166.93579141 223.13793945 175.0871582 C223.13809464 176.54251681 223.13958687 177.99787582 223.14234924 179.45323181 C223.14372902 182.49358538 223.13124527 185.53346479 223.10839844 188.57373047 C223.07998912 192.45969754 223.08276337 196.34487914 223.09548855 200.23090458 C223.10246126 203.23276921 223.09463883 206.23445404 223.08223152 209.2362957 C223.07773424 210.66873929 223.07736508 212.10120229 223.08129692 213.53364754 C223.08422513 215.53857756 223.06548501 217.54350336 223.04589844 219.54833984 C223.04049545 220.68638565 223.03509247 221.82443146 223.02952576 222.9969635 C222.43802817 227.8488641 220.57244084 231.92170236 216.7043457 234.98950195 C212.71489557 237.83910919 209.91782218 238.30724504 205.0949707 238.2746582 C204.25063477 238.27143555 203.40629883 238.26821289 202.53637695 238.26489258 C201.66368164 238.25651367 200.79098633 238.24813477 199.8918457 238.23950195 C198.55959961 238.23273438 198.55959961 238.23273438 197.20043945 238.22583008 C195.01417241 238.21407595 192.82804392 238.19764444 190.6418457 238.17700195 C190.6418457 240.81700195 190.6418457 243.45700195 190.6418457 246.17700195 C191.7762207 246.36262695 192.9105957 246.54825195 194.0793457 246.73950195 C201.93410468 248.44431298 209.28548114 252.01824151 216.6418457 255.17700195 C217.2709082 254.5015332 217.8999707 253.82606445 218.5480957 253.13012695 C229.62971959 241.58120567 229.62971959 241.58120567 238.5168457 240.86450195 C247.98894394 242.73678733 257.27923052 255.65840511 263.9675293 262.37231445 C265.66380501 264.0740317 267.3654702 265.77023181 269.06762695 267.46606445 C270.15518795 268.55428499 271.24243939 269.64281501 272.3293457 270.73168945 C272.83449707 271.23481659 273.33964844 271.73794373 273.86010742 272.25631714 C277.92641993 276.35001251 280.30254379 279.29576879 280.6418457 285.17700195 C278.30569314 293.06151685 272.4622183 298.58944426 266.6418457 304.17700195 C268.26147383 309.23833984 270.27406933 314.02906812 272.4230957 318.8840332 C273.91529401 322.91583825 274.80164224 326.96835707 275.6418457 331.17700195 C276.28210693 331.15081787 276.92236816 331.12463379 277.58203125 331.09765625 C280.49755073 330.99338914 283.41267768 330.92858443 286.3293457 330.86450195 C287.33674805 330.82260742 288.34415039 330.78071289 289.38208008 330.73754883 C296.87710852 330.61386849 296.87710852 330.61386849 300.72387695 333.4465332 C303.53660717 337.45080697 304.88954988 340.09931561 304.91650391 345.03393555 C304.92603592 345.99528412 304.93556793 346.95663269 304.94538879 347.94711304 C304.94402168 349.49563461 304.94402168 349.49563461 304.94262695 351.07543945 C304.94691208 352.14315582 304.9511972 353.21087219 304.95561218 354.3109436 C304.96135288 356.56869803 304.96185766 358.82647096 304.95751953 361.08422852 C304.95436388 364.53214231 304.97780782 367.97919449 305.00317383 371.42700195 C305.00544732 373.62231337 305.00615009 375.8176271 305.00512695 378.01293945 C305.0143367 379.04123871 305.02354645 380.06953796 305.03303528 381.1289978 C304.99804884 386.56419949 304.73759047 390.49863037 301.6418457 395.17700195 C297.90536594 398.67241851 294.31048525 399.31034938 289.3137207 399.2746582 C288.51450195 399.27143555 287.7152832 399.26821289 286.8918457 399.26489258 C286.0668457 399.25651367 285.2418457 399.24813477 284.3918457 399.23950195 C283.55137695 399.23499023 282.7109082 399.23047852 281.8449707 399.22583008 C279.77723169 399.21408156 277.70952946 399.19614717 275.6418457 399.17700195 C275.5490332 400.00071289 275.4562207 400.82442383 275.3605957 401.6730957 C274.50100721 405.86358962 272.93732694 409.37813569 271.1418457 413.23950195 C267.89016067 419.48800369 267.89016067 419.48800369 266.6418457 426.17700195 C268.99204491 428.88589611 271.44553516 431.11999782 274.15161133 433.45239258 C278.47350675 437.40251205 279.81195998 440.34409089 280.6418457 446.17700195 C279.0827232 451.58807416 276.60531674 454.32964347 272.6418457 458.17700195 C271.61459094 459.20998774 270.58989413 460.24552178 269.56738281 461.28320312 C266.55682594 464.32926988 263.54025157 467.36929745 260.52148438 470.40722656 C259.22315036 471.71567959 257.92660829 473.02591307 256.63183594 474.33789062 C254.7531578 476.2408159 252.86810352 478.13721788 250.98168945 480.0324707 C250.40555405 480.61892868 249.82941864 481.20538666 249.23582458 481.80961609 C245.25871155 485.78783324 242.61621742 487.91375239 236.8918457 488.67700195 C228.39360676 488.42520228 222.09306428 479.88918313 216.6418457 474.17700195 C215.0659668 474.88276367 215.0659668 474.88276367 213.45825195 475.6027832 C206.27168585 478.79823849 199.17994739 481.88864966 191.6418457 484.17700195 C191.60446289 485.32297852 191.56708008 486.46895508 191.52856445 487.6496582 C191.46285987 489.17963641 191.39641411 490.70958292 191.3293457 492.23950195 C191.30678711 492.99166992 191.28422852 493.74383789 191.26098633 494.51879883 C190.96566171 500.72061587 189.9470996 505.48445083 185.7890625 510.34106445 C180.88696029 513.20071915 176.09442735 512.76768149 170.5168457 512.7434082 C169.33719238 512.74960678 168.15753906 512.75580536 166.94213867 512.76219177 C164.45077336 512.76928824 161.95936062 512.76611906 159.46801758 512.75341797 C155.6552819 512.73955082 151.84499922 512.77363245 148.0324707 512.81176758 C145.6105951 512.81271875 143.18871643 512.81086004 140.7668457 512.8059082 C139.62715332 512.81916641 138.48746094 512.83242462 137.31323242 512.84608459 C129.43046197 512.75328427 129.43046197 512.75328427 125.5090332 509.88769531 C122.77256669 505.91502433 121.38069303 503.50229963 121.4465332 498.63012695 C121.45297852 497.78579102 121.45942383 496.94145508 121.46606445 496.0715332 C121.48282227 495.19883789 121.49958008 494.32614258 121.5168457 493.42700195 C121.53038086 492.09475586 121.53038086 492.09475586 121.54418945 490.7355957 C121.56769993 488.54912138 121.60056071 486.36320101 121.6418457 484.17700195 C120.99723389 483.9979834 120.35262207 483.81896484 119.68847656 483.63452148 C112.75812101 481.68809868 106.24958463 479.00889006 99.6418457 476.17700195 C97.97722846 475.50523439 96.31122464 474.83684754 94.6418457 474.17700195 C93.41208008 475.44157227 93.41208008 475.44157227 92.1574707 476.73168945 C91.06919836 477.83872511 89.98064173 478.94548134 88.8918457 480.05200195 C88.35301758 480.60758789 87.81418945 481.16317383 87.2590332 481.7355957 C83.47123902 485.5695825 80.84404982 487.92769583 75.3293457 488.55200195 C67.64079658 487.7701156 62.70855968 482.69393656 57.5012207 477.43481445 C56.85235901 476.78882294 56.20349731 476.14283142 55.53497314 475.4772644 C54.17335484 474.11767665 52.8154737 472.75433679 51.46118164 471.38745117 C49.39443594 469.30461236 47.31213317 467.23830068 45.2277832 465.1730957 C43.90129923 463.84462963 42.57574599 462.51523341 41.2512207 461.18481445 C40.63245056 460.572117 40.01368042 459.95941956 39.37615967 459.32815552 C35.51059596 455.39932684 32.24602425 451.58456897 31.2512207 445.97387695 C31.69937147 439.45079364 34.81673873 436.08934157 39.31762695 431.53637695 C41.61649468 429.20273644 43.63692655 426.7645864 45.6418457 424.17700195 C45.17133789 423.19860352 44.70083008 422.22020508 44.21606445 421.2121582 C40.92212342 414.29885065 37.83615495 407.53439178 35.6418457 400.17700195 C34.40047852 400.12801758 33.15911133 400.0790332 31.88012695 400.02856445 C30.23817876 399.95350396 28.59625273 399.87795756 26.9543457 399.80200195 C26.13772461 399.77106445 25.32110352 399.74012695 24.47973633 399.70825195 C15.04019655 399.24965083 15.04019655 399.24965083 11.05981445 395.80981445 C8.40907582 392.56160775 7.6418457 391.50433184 7.6418457 387.17700195 C6.70083008 387.2234082 5.75981445 387.26981445 4.7902832 387.31762695 C-5.4203069 387.61358609 -5.4203069 387.61358609 -9.9831543 385.48950195 C-15.70315805 379.92002461 -17.38157415 376.40515457 -17.67456055 368.53637695 C-17.73740234 366.93149414 -17.73740234 366.93149414 -17.80151367 365.29418945 C-17.84083008 364.18301758 -17.88014648 363.0718457 -17.9206543 361.92700195 C-17.96383789 360.80036133 -18.00702148 359.6737207 -18.05151367 358.51293945 C-18.15747445 355.73441241 -18.25954572 352.95579805 -18.3581543 350.17700195 C-20.06358398 349.64913086 -20.06358398 349.64913086 -21.8034668 349.1105957 C-30.89974852 346.22288722 -39.22752637 343.01707454 -47.5378418 338.30200195 C-50.18410171 336.94032725 -50.18410171 336.94032725 -52.37768555 337.62231445 C-55.80026596 340.30907383 -58.70789888 343.48843245 -61.67260742 346.6574707 C-65.7975651 350.93638433 -69.99345017 354.54951675 -76.01831055 355.6730957 C-76.81108398 355.65375977 -77.60385742 355.63442383 -78.4206543 355.61450195 C-79.21600586 355.61321289 -80.01135742 355.61192383 -80.83081055 355.6105957 C-86.31474666 354.66976586 -90.18678347 351.72447108 -94.04663086 347.87670898 C-94.92063538 347.01216095 -95.79463989 346.14761292 -96.69512939 345.25686646 C-97.62033386 344.32558929 -98.54553833 343.39431213 -99.4987793 342.43481445 C-100.47146622 341.46415106 -101.44459789 340.49393316 -102.41815186 339.5241394 C-104.45026452 337.49643481 -106.47688965 335.46344151 -108.49975586 333.42651367 C-111.08760824 330.82154748 -113.68872863 328.23031379 -116.29410172 325.64288521 C-118.30358663 323.64425967 -120.30584842 321.6385205 -122.30602264 319.6305809 C-123.72562562 318.20801643 -125.15125007 316.79146911 -126.57696533 315.37503052 C-127.43836121 314.50417816 -128.29975708 313.63332581 -129.18725586 312.73608398 C-129.94637268 311.97458038 -130.7054895 311.21307678 -131.48760986 310.42849731 C-134.9143768 306.30384263 -135.5796244 302.64962185 -135.72143555 297.3371582 C-134.50238397 290.08838914 -129.20847011 285.66822404 -124.1706543 280.80200195 C-123.42106445 280.06594727 -122.67147461 279.32989258 -121.89916992 278.5715332 C-120.05880606 276.76633553 -118.21179507 274.96854688 -116.3581543 273.17700195 C-116.60984375 272.63398438 -116.8615332 272.0909668 -117.12084961 271.53149414 C-129.3581543 245.02668115 -129.3581543 245.02668115 -129.3581543 238.17700195 C-130.49244873 238.20056763 -130.49244873 238.20056763 -131.6496582 238.22460938 C-135.09408006 238.28718242 -138.53838204 238.32606401 -141.9831543 238.36450195 C-143.17295898 238.38963867 -144.36276367 238.41477539 -145.58862305 238.44067383 C-152.47781281 238.49840447 -157.67426652 238.53712762 -163.00268555 233.67700195 C-166.71058109 228.91502239 -167.48334121 225.91349322 -167.51928711 219.96484375 C-167.52889465 218.68308762 -167.5385022 217.40133148 -167.54840088 216.08073425 C-167.5532493 214.67923155 -167.55752802 213.27772677 -167.5612793 211.8762207 C-167.56703365 210.43756611 -167.57279135 208.99891153 -167.57855225 207.56025696 C-167.58905468 204.54326013 -167.5949021 201.52628988 -167.59838867 198.50927734 C-167.60386773 194.65242879 -167.62788598 190.79593427 -167.65636063 186.93919659 C-167.67503047 183.96654755 -167.68019493 180.99398299 -167.68172455 178.02128029 C-167.6847425 176.59997436 -167.69274203 175.17866962 -167.70590973 173.75742149 C-167.72305705 171.76413389 -167.71923266 169.77069972 -167.71459961 167.77734375 C-167.71824524 166.64499802 -167.72189087 165.51265228 -167.72564697 164.34599304 C-167.22997703 160.07169393 -165.77240544 156.69201399 -162.82299805 153.5324707 C-158.29730275 150.07164489 -156.13565618 149.05293648 -150.4753418 148.8605957 C-149.30874023 148.81870117 -148.14213867 148.77680664 -146.94018555 148.73364258 C-145.71686523 148.69432617 -144.49354492 148.65500977 -143.2331543 148.61450195 C-142.00209961 148.57131836 -140.77104492 148.52813477 -139.50268555 148.48364258 C-136.45462577 148.37731491 -133.4064824 148.27528415 -130.3581543 148.17700195 C-129.93405273 146.97946289 -129.50995117 145.78192383 -129.07299805 144.5480957 C-125.34146948 134.14507886 -121.23545202 124.09466814 -116.3581543 114.17700195 C-117.06161987 113.50495728 -117.06161987 113.50495728 -117.77929688 112.81933594 C-119.92045894 110.76188131 -122.04550495 108.68848691 -124.1706543 106.61450195 C-124.90864258 105.9100293 -125.64663086 105.20555664 -126.40698242 104.47973633 C-131.71498077 99.26781034 -134.93308146 95.21519389 -135.7331543 87.61450195 C-135.08112485 81.63756535 -132.26322768 77.70961827 -128.12133789 73.50439453 C-127.26970062 72.63361771 -126.41806335 71.76284088 -125.5406189 70.86567688 C-124.62188995 69.94360947 -123.70316101 69.02154205 -122.7565918 68.0715332 C-121.79573311 67.10101864 -120.83509433 66.13028631 -119.87466431 65.15934753 C-117.86421079 63.13098694 -115.84770948 61.1088661 -113.82739258 59.09033203 C-111.25332131 56.51656536 -108.7005018 53.92279078 -106.1525631 51.32318592 C-104.17588536 49.31297538 -102.18554041 47.31672744 -100.19124222 45.32401085 C-98.7880677 43.91562598 -97.3985383 42.4936882 -96.0093689 41.07148743 C-90.96852243 36.08408584 -86.56000971 32.20456652 -79.3581543 31.17700195 C-70.82196811 31.28877008 -66.10047548 36.37548158 -60.3581543 42.17700195 C-58.92243952 43.6123812 -57.48621348 45.04724919 -56.04956055 46.48168945 C-54.81893788 47.71330651 -53.58841657 48.9450249 -52.3581543 50.17700195 C-51.78484375 49.9253125 -51.2115332 49.67362305 -50.62084961 49.41430664 C-22.65787932 37.17700195 -22.65787932 37.17700195 -17.3581543 37.17700195 C-17.38171997 36.08814697 -17.38171997 36.08814697 -17.40576172 34.97729492 C-17.46835785 31.66894407 -17.50722341 28.36071814 -17.5456543 25.05200195 C-17.57079102 23.90989258 -17.59592773 22.7677832 -17.62182617 21.59106445 C-17.68074856 14.83463116 -17.66049368 9.71462252 -12.82299805 4.5324707 C-8.06738078 0.8958222 -5.96885674 0.04969197 0 0 Z M-19.3581543 139.17700195 C-20.18831055 139.81895508 -21.0184668 140.4609082 -21.8737793 141.12231445 C-35.04790223 152.01789411 -42.8295086 170.51496947 -44.5769043 187.27514648 C-45.87775188 204.96260851 -41.05056836 223.72397268 -29.67456055 237.6027832 C-27.04541629 240.61697165 -24.23644482 243.40105065 -21.3581543 246.17700195 C-20.72522461 246.84086914 -20.09229492 247.50473633 -19.44018555 248.1887207 C-7.25536878 260.15835307 11.31720233 265.50901589 27.9543457 265.55200195 C30.47418287 265.49847331 32.98693218 265.40935936 35.50415039 265.28344727 C37.22828169 265.19759514 38.95478333 265.16012615 40.6809082 265.13793945 C50.07037249 264.31215595 56.67369396 255.27157269 62.84887695 248.8996582 C68.48764737 243.08889915 68.48764737 243.08889915 72.6418457 242.17700195 C74.5599707 242.36262695 74.5599707 242.36262695 76.5168457 242.55200195 C79.07128147 242.58070348 80.29948162 242.4087331 82.4309082 240.96606445 C94.55615221 228.28715633 100.36174881 208.75067243 100.1105957 191.53491211 C99.2765793 172.53931971 91.08973007 154.56641726 77.6418457 141.17700195 C60.58302708 126.22164199 41.53324888 120.68718006 19.21704102 121.94946289 C4.53119247 123.24707484 -8.22207732 129.8150025 -19.3581543 139.17700195 Z M177.82104492 317.4099884 C177.20245605 318.04571274 176.58386719 318.68143707 175.9465332 319.33642578 C175.23899902 320.050793 174.53146484 320.76516022 173.80249023 321.50117493 C173.04822754 322.28751816 172.29396484 323.07386139 171.5168457 323.8840332 C170.73293457 324.67976242 169.94902344 325.47549164 169.14135742 326.29533386 C166.62946725 328.84855858 164.13495361 331.41794464 161.6418457 333.98950195 C159.14627453 336.54775058 156.64718913 339.10237554 154.14233398 341.65153503 C152.58261544 343.24047826 151.02869413 344.83513709 149.48120117 346.43598938 C148.77366699 347.15981308 148.06613281 347.88363678 147.3371582 348.62939453 C146.71856934 349.26750565 146.09998047 349.90561676 145.46264648 350.56306458 C141.91784506 353.70513678 138.95578116 354.48633059 134.2668457 354.55200195 C132.89399414 354.59454102 132.89399414 354.59454102 131.4934082 354.63793945 C124.36280472 353.48532136 119.15995005 347.07081598 114.14575195 342.24731445 C111.37117371 339.20374592 111.37117371 339.20374592 107.6418457 338.17700195 C106.82351848 340.07032729 106.01242303 341.96677929 105.2043457 343.86450195 C104.75188477 344.92024414 104.29942383 345.97598633 103.83325195 347.0637207 C99.56886891 358.20704296 99.95947023 373.59694502 104.38793945 384.58325195 C111.61056528 399.52351224 121.75836641 410.62139147 137.5168457 416.55200195 C152.00965235 421.52714453 166.85938722 420.17512073 180.6418457 413.78637695 C195.19933038 406.27028432 204.06213693 394.46055515 209.38793945 379.01293945 C213.33138365 364.49018635 210.26513606 350.11865048 203.43481445 337.09887695 C198.5317686 329.10872815 190.63359089 320.0422878 181.74511719 316.39970398 C179.5692637 315.94076024 179.5692637 315.94076024 177.82104492 317.4099884 Z " fill="#4E8AD0" transform="translate(187.358154296875,-0.177001953125)"/>
<path d="M0 0 C0.6522908 -0.0065712 1.3045816 -0.0131424 1.97663879 -0.01991272 C4.13978185 -0.03965412 6.30285531 -0.05131252 8.46606445 -0.0612793 C9.20570749 -0.06535482 9.94535053 -0.06943035 10.707407 -0.07362938 C14.62524766 -0.09449765 18.54305326 -0.10879382 22.4609375 -0.11816406 C26.49829275 -0.12920644 30.53509347 -0.16357828 34.57225323 -0.20333576 C37.68391405 -0.22955181 40.79544405 -0.23786047 43.90720558 -0.24144554 C45.39468934 -0.24630177 46.88216763 -0.25788832 48.36954308 -0.27648354 C62.97083573 -0.44762387 62.97083573 -0.44762387 68.6418457 4.17700195 C73.92722077 9.91864444 73.1086756 17.89652135 72.8918457 25.17700195 C72.87379883 26.33329102 72.85575195 27.48958008 72.8371582 28.6809082 C72.7903333 31.5138147 72.72476583 34.34496079 72.6418457 37.17700195 C73.33439453 37.35295898 74.02694336 37.52891602 74.74047852 37.71020508 C80.83569675 39.30751509 86.60594537 41.19112733 92.3918457 43.67700195 C93.09438477 43.97219727 93.79692383 44.26739258 94.52075195 44.5715332 C96.56452527 45.4322689 98.60383755 46.30271442 100.6418457 47.17700195 C101.32569336 47.46961914 102.00954102 47.76223633 102.71411133 48.0637207 C104.35711399 48.76715702 105.99954423 49.47193012 107.6418457 50.17700195 C108.07005615 49.73831787 108.4982666 49.29963379 108.93945312 48.84765625 C110.89739111 46.84794187 112.86325381 44.85619876 114.8293457 42.86450195 C115.83964844 41.8290625 115.83964844 41.8290625 116.87036133 40.77270508 C122.31121971 35.27876515 126.57434343 31.4459187 134.6418457 31.17700195 C141.67544552 32.56695795 145.96260547 35.66468825 150.80200195 40.78637695 C151.43617538 41.43141174 152.07034882 42.07644653 152.72373962 42.74102783 C154.73204977 44.78920154 156.71863586 46.85693268 158.7043457 48.92700195 C160.69780732 50.97830469 162.69560034 53.02526381 164.69566345 55.07012939 C165.93269146 56.33772086 167.16527849 57.60966899 168.39234924 58.88690186 C172.07176759 62.69160558 175.89880044 66.23404061 179.91993713 69.67630005 C185.97595995 74.95432998 190.30671523 79.95435796 190.9543457 88.11450195 C191.08322853 92.94265097 189.05134088 96.57952154 185.89550781 100.15625 C183.78490886 102.3287847 181.6328917 104.4476597 179.4543457 106.55200195 C178.70475586 107.28805664 177.95516602 108.02411133 177.18286133 108.7824707 C175.34249746 110.58766838 173.49548648 112.38545703 171.6418457 114.17700195 C172.14973633 115.20696289 172.65762695 116.23692383 173.1809082 117.2980957 C178.07923627 127.38239732 182.12557637 137.53495953 185.6418457 148.17700195 C186.39280518 148.18634766 187.14376465 148.19569336 187.91748047 148.20532227 C191.34708214 148.25927759 194.77535678 148.34287742 198.2043457 148.42700195 C199.38577148 148.44118164 200.56719727 148.45536133 201.78442383 148.4699707 C208.52196221 148.65869727 213.34187173 148.82319783 218.6418457 153.17700195 C223.89944168 159.81971487 223.20880605 166.93579141 223.13793945 175.0871582 C223.13809464 176.54251681 223.13958687 177.99787582 223.14234924 179.45323181 C223.14372902 182.49358538 223.13124527 185.53346479 223.10839844 188.57373047 C223.07998912 192.45969754 223.08276337 196.34487914 223.09548855 200.23090458 C223.10246126 203.23276921 223.09463883 206.23445404 223.08223152 209.2362957 C223.07773424 210.66873929 223.07736508 212.10120229 223.08129692 213.53364754 C223.08422513 215.53857756 223.06548501 217.54350336 223.04589844 219.54833984 C223.04049545 220.68638565 223.03509247 221.82443146 223.02952576 222.9969635 C222.43802817 227.8488641 220.57244084 231.92170236 216.7043457 234.98950195 C212.63989618 237.89268019 209.79197091 238.30616942 204.8762207 238.2746582 C203.98676758 238.27143555 203.09731445 238.26821289 202.1809082 238.26489258 C201.26051758 238.25651367 200.34012695 238.24813477 199.3918457 238.23950195 C198.45598633 238.23499023 197.52012695 238.23047852 196.5559082 238.22583008 C194.25115529 238.21407113 191.94653344 238.19763621 189.6418457 238.17700195 C189.60446289 237.45254883 189.56708008 236.7280957 189.52856445 235.98168945 C189.08985662 228.10574379 189.08985662 228.10574379 185.6418457 221.17700195 C180.09119694 218.19913999 175.44004277 217.71275532 169.20825195 217.6652832 C168.33031479 217.647332 167.45237762 217.6293808 166.5478363 217.61088562 C163.76672041 217.55706516 160.98577333 217.52297831 158.2043457 217.48950195 C156.30914006 217.45630387 154.41395662 217.42181193 152.51879883 217.38598633 C147.89327016 217.3013552 143.26778909 217.23440996 138.6418457 217.17700195 C138.74686401 215.85466553 138.74686401 215.85466553 138.85400391 214.50561523 C141.51235533 179.52631739 136.30385982 148.99130348 113.6418457 121.17700195 C113.02954102 120.39969727 112.41723633 119.62239258 111.78637695 118.8215332 C102.61780637 107.77624028 90.36118863 99.59445771 77.6418457 93.17700195 C77.02083984 92.8624707 76.39983398 92.54793945 75.76000977 92.22387695 C52.0488952 80.47067847 21.03583193 77.16990055 -4.41088867 85.48803711 C-19.77420037 90.92375246 -33.94625532 98.56392892 -46.3581543 109.17700195 C-46.9459668 109.62043945 -47.5337793 110.06387695 -48.1394043 110.52075195 C-66.26169194 124.53988013 -79.40517301 150.87524242 -82.7878418 172.9855957 C-83.00549175 175.04667482 -83.18603929 177.11162183 -83.3581543 179.17700195 C-83.6881543 179.83700195 -84.0181543 180.49700195 -84.3581543 181.17700195 C-86.09116019 201.86311641 -83.01102983 221.37112924 -74.3581543 240.17700195 C-73.90698242 241.19922852 -73.45581055 242.22145508 -72.9909668 243.2746582 C-64.76543702 260.91075171 -51.08994274 277.08798325 -34.3581543 287.17700195 C-33.26760742 287.8421582 -32.17706055 288.50731445 -31.0534668 289.19262695 C-10.90612082 301.22696641 8.90292478 305.38413122 32.1418457 305.23950195 C33.55069828 305.23447728 34.95955259 305.22991609 36.3684082 305.22583008 C39.79293208 305.21410226 43.21736617 305.19768886 46.6418457 305.17700195 C45.05899132 310.0190424 43.14870974 314.50900182 40.95825195 319.1027832 C39.26766003 323.05084209 37.95031764 327.0890851 36.6418457 331.17700195 C35.33989258 331.21438477 34.03793945 331.25176758 32.6965332 331.2902832 C30.96994313 331.35596869 29.24338189 331.42241514 27.5168457 331.48950195 C26.6609082 331.51206055 25.8049707 331.53461914 24.9230957 331.55786133 C19.85796072 331.7721555 15.8954585 332.14517156 11.6418457 335.17700195 C8.06604836 340.55383049 8.17097067 345.59189634 8.13012695 351.82543945 C8.11217575 352.83796783 8.09422455 353.85049622 8.07572937 354.89370728 C8.02174613 358.11309706 7.98776864 361.33233958 7.9543457 364.55200195 C7.9211621 366.74082447 7.88667148 368.92962759 7.85083008 371.1184082 C7.76602668 376.4711407 7.69762621 381.82389255 7.6418457 387.17700195 C5.38422066 387.2226352 3.12633125 387.25532737 0.8684082 387.2824707 C-1.0175708 387.31183716 -1.0175708 387.31183716 -2.94165039 387.34179688 C-8.60467405 387.06864117 -10.98312657 384.66351842 -14.6706543 380.67700195 C-17.33317066 376.73253326 -17.4997085 373.23240333 -17.67456055 368.53637695 C-17.73740234 366.93149414 -17.73740234 366.93149414 -17.80151367 365.29418945 C-17.84083008 364.18301758 -17.88014648 363.0718457 -17.9206543 361.92700195 C-17.96383789 360.80036133 -18.00702148 359.6737207 -18.05151367 358.51293945 C-18.15747445 355.73441241 -18.25954572 352.95579805 -18.3581543 350.17700195 C-20.06358398 349.64913086 -20.06358398 349.64913086 -21.8034668 349.1105957 C-30.89974852 346.22288722 -39.22752637 343.01707454 -47.5378418 338.30200195 C-50.18410171 336.94032725 -50.18410171 336.94032725 -52.37768555 337.62231445 C-55.80026596 340.30907383 -58.70789888 343.48843245 -61.67260742 346.6574707 C-65.7975651 350.93638433 -69.99345017 354.54951675 -76.01831055 355.6730957 C-76.81108398 355.65375977 -77.60385742 355.63442383 -78.4206543 355.61450195 C-79.21600586 355.61321289 -80.01135742 355.61192383 -80.83081055 355.6105957 C-86.31474666 354.66976586 -90.18678347 351.72447108 -94.04663086 347.87670898 C-94.92063538 347.01216095 -95.79463989 346.14761292 -96.69512939 345.25686646 C-97.62033386 344.32558929 -98.54553833 343.39431213 -99.4987793 342.43481445 C-100.47146622 341.46415106 -101.44459789 340.49393316 -102.41815186 339.5241394 C-104.45026452 337.49643481 -106.47688965 335.46344151 -108.49975586 333.42651367 C-111.08760824 330.82154748 -113.68872863 328.23031379 -116.29410172 325.64288521 C-118.30358663 323.64425967 -120.30584842 321.6385205 -122.30602264 319.6305809 C-123.72562562 318.20801643 -125.15125007 316.79146911 -126.57696533 315.37503052 C-127.43836121 314.50417816 -128.29975708 313.63332581 -129.18725586 312.73608398 C-129.94637268 311.97458038 -130.7054895 311.21307678 -131.48760986 310.42849731 C-134.9143768 306.30384263 -135.5796244 302.64962185 -135.72143555 297.3371582 C-134.50238397 290.08838914 -129.20847011 285.66822404 -124.1706543 280.80200195 C-123.42106445 280.06594727 -122.67147461 279.32989258 -121.89916992 278.5715332 C-120.05880606 276.76633553 -118.21179507 274.96854688 -116.3581543 273.17700195 C-116.60984375 272.63398438 -116.8615332 272.0909668 -117.12084961 271.53149414 C-129.3581543 245.02668115 -129.3581543 245.02668115 -129.3581543 238.17700195 C-130.49244873 238.20056763 -130.49244873 238.20056763 -131.6496582 238.22460938 C-135.09408006 238.28718242 -138.53838204 238.32606401 -141.9831543 238.36450195 C-143.17295898 238.38963867 -144.36276367 238.41477539 -145.58862305 238.44067383 C-152.47781281 238.49840447 -157.67426652 238.53712762 -163.00268555 233.67700195 C-166.71058109 228.91502239 -167.48334121 225.91349322 -167.51928711 219.96484375 C-167.52889465 218.68308762 -167.5385022 217.40133148 -167.54840088 216.08073425 C-167.5532493 214.67923155 -167.55752802 213.27772677 -167.5612793 211.8762207 C-167.56703365 210.43756611 -167.57279135 208.99891153 -167.57855225 207.56025696 C-167.58905468 204.54326013 -167.5949021 201.52628988 -167.59838867 198.50927734 C-167.60386773 194.65242879 -167.62788598 190.79593427 -167.65636063 186.93919659 C-167.67503047 183.96654755 -167.68019493 180.99398299 -167.68172455 178.02128029 C-167.6847425 176.59997436 -167.69274203 175.17866962 -167.70590973 173.75742149 C-167.72305705 171.76413389 -167.71923266 169.77069972 -167.71459961 167.77734375 C-167.71824524 166.64499802 -167.72189087 165.51265228 -167.72564697 164.34599304 C-167.22997703 160.07169393 -165.77240544 156.69201399 -162.82299805 153.5324707 C-158.29730275 150.07164489 -156.13565618 149.05293648 -150.4753418 148.8605957 C-149.30874023 148.81870117 -148.14213867 148.77680664 -146.94018555 148.73364258 C-145.71686523 148.69432617 -144.49354492 148.65500977 -143.2331543 148.61450195 C-142.00209961 148.57131836 -140.77104492 148.52813477 -139.50268555 148.48364258 C-136.45462577 148.37731491 -133.4064824 148.27528415 -130.3581543 148.17700195 C-129.93405273 146.97946289 -129.50995117 145.78192383 -129.07299805 144.5480957 C-125.34146948 134.14507886 -121.23545202 124.09466814 -116.3581543 114.17700195 C-117.06161987 113.50495728 -117.06161987 113.50495728 -117.77929688 112.81933594 C-119.92045894 110.76188131 -122.04550495 108.68848691 -124.1706543 106.61450195 C-124.90864258 105.9100293 -125.64663086 105.20555664 -126.40698242 104.47973633 C-131.71498077 99.26781034 -134.93308146 95.21519389 -135.7331543 87.61450195 C-135.08112485 81.63756535 -132.26322768 77.70961827 -128.12133789 73.50439453 C-127.26970062 72.63361771 -126.41806335 71.76284088 -125.5406189 70.86567688 C-124.62188995 69.94360947 -123.70316101 69.02154205 -122.7565918 68.0715332 C-121.79573311 67.10101864 -120.83509433 66.13028631 -119.87466431 65.15934753 C-117.86421079 63.13098694 -115.84770948 61.1088661 -113.82739258 59.09033203 C-111.25332131 56.51656536 -108.7005018 53.92279078 -106.1525631 51.32318592 C-104.17588536 49.31297538 -102.18554041 47.31672744 -100.19124222 45.32401085 C-98.7880677 43.91562598 -97.3985383 42.4936882 -96.0093689 41.07148743 C-90.96852243 36.08408584 -86.56000971 32.20456652 -79.3581543 31.17700195 C-70.82196811 31.28877008 -66.10047548 36.37548158 -60.3581543 42.17700195 C-58.92243952 43.6123812 -57.48621348 45.04724919 -56.04956055 46.48168945 C-54.81893788 47.71330651 -53.58841657 48.9450249 -52.3581543 50.17700195 C-51.78484375 49.9253125 -51.2115332 49.67362305 -50.62084961 49.41430664 C-22.65787932 37.17700195 -22.65787932 37.17700195 -17.3581543 37.17700195 C-17.38171997 36.08814697 -17.38171997 36.08814697 -17.40576172 34.97729492 C-17.46835785 31.66894407 -17.50722341 28.36071814 -17.5456543 25.05200195 C-17.57079102 23.90989258 -17.59592773 22.7677832 -17.62182617 21.59106445 C-17.68074856 14.83463116 -17.66049368 9.71462252 -12.82299805 4.5324707 C-8.06738078 0.8958222 -5.96885674 0.04969197 0 0 Z " fill="#3C6EA9" transform="translate(187.358154296875,-0.177001953125)"/>
<path d="M0 0 C0.70964905 0.0012085 1.4192981 0.00241699 2.15045166 0.00366211 C29.59080299 0.13044666 53.48144145 9.49673543 74.5 27.375 C75.53060547 28.20451172 75.53060547 28.20451172 76.58203125 29.05078125 C96.19001155 45.25540402 109.63579107 71.8538006 113.22265625 96.859375 C114.26654643 110.09178576 113.99464677 123.32265172 111.5 136.375 C110.83613281 136.46136719 110.17226563 136.54773438 109.48828125 136.63671875 C103.6866907 137.55989155 100.15598474 138.42173035 96.5 143.375 C95.61734863 146.15447382 95.32880932 148.79881364 95.18359375 151.703125 C95.14169922 152.50234375 95.09980469 153.3015625 95.05664062 154.125 C95.01732422 154.95 94.97800781 155.775 94.9375 156.625 C94.87272461 157.88570313 94.87272461 157.88570313 94.80664062 159.171875 C94.70091457 161.23940671 94.59998705 163.30718281 94.5 165.375 C93.27023437 165.84550781 92.04046875 166.31601563 90.7734375 166.80078125 C89.14056477 167.4295311 87.50775562 168.05844609 85.875 168.6875 C85.06675781 168.99623047 84.25851562 169.30496094 83.42578125 169.62304688 C79.88787503 170.98931147 76.5603616 172.34193798 73.2265625 174.16796875 C70.5 175.375 70.5 175.375 67.94921875 175.375 C64.61136533 174.01217628 62.77141706 171.99387687 60.3125 169.375 C57.24012047 165.92997294 57.24012047 165.92997294 53.5 163.375 C54.09456133 160.20861526 55.05638843 158.44472277 57.125 156 C68.50283418 141.1759949 73.42968987 122.88365484 71.5 104.375 C68.93541422 85.70606218 59.53874363 68.21888678 44.6875 56.5625 C27.29779179 44.26674672 8.31510658 39.7593009 -12.75488281 42.68847656 C-27.84847467 45.47882853 -41.12127902 53.17690631 -51.5 64.375 C-52.01949219 64.87773437 -52.53898437 65.38046875 -53.07421875 65.8984375 C-64.89684106 78.06643979 -70.75604617 96.15272725 -71 112.875 C-70.72725872 131.57056261 -63.59689455 149.55867127 -50.28125 162.7578125 C-34.29238404 177.80351501 -16.02176484 184.2707249 5.77734375 183.6484375 C11.44133927 183.38245818 16.9696666 182.63393768 22.5 181.375 C21.84 182.035 21.18 182.695 20.5 183.375 C20.04882812 183.82746094 19.59765625 184.27992188 19.1328125 184.74609375 C17.92431899 185.95169613 16.7098497 187.15131499 15.4921875 188.34765625 C14.79351562 189.03730469 14.09484375 189.72695313 13.375 190.4375 C12.71242188 191.08847656 12.04984375 191.73945313 11.3671875 192.41015625 C7.21190076 196.7827697 5.66833985 199.54985874 5.8125 205.640625 C7.40676948 211.98146951 13.19797368 216.20608404 17.796875 220.5390625 C19.5 222.375 19.5 222.375 19.5 224.375 C-5.28384642 231.65192813 -34.84000754 222.15931979 -56.5 210.375 C-65.3123401 205.48805402 -72.29679673 199.314795 -79.5 192.375 C-80.22058594 191.72917969 -80.94117188 191.08335937 -81.68359375 190.41796875 C-99.79509353 173.69125165 -111.53956332 145.63197672 -112.63623047 121.35986328 C-113.11241165 101.59982329 -113.11241165 101.59982329 -111.5 98.375 C-111.25328329 96.54394584 -111.02797268 94.70999319 -110.8125 92.875 C-106.5613397 64.61728739 -89.91500904 39.58312308 -67.5 22.375 C-66.75492188 21.77945313 -66.00984375 21.18390625 -65.2421875 20.5703125 C-53.81285861 11.9286248 -39.4057331 5.7006586 -25.5 2.375 C-24.48607178 2.11444824 -24.48607178 2.11444824 -23.45166016 1.84863281 C-15.68471459 0.0410176 -7.94231975 -0.02495187 0 0 Z " fill="#FCC93A" transform="translate(214.5,80.625)"/>
<path d="M0 0 C1.43073853 -0.00845947 1.43073853 -0.00845947 2.89038086 -0.01708984 C26.27751043 0.22046557 47.96271067 9.77102243 64.375 26.3125 C82.59835932 46.00334261 88.34856062 68.98356943 87.375 95.3125 C85.87276127 113.38228583 77.27047314 130.91273551 65.375 144.3125 C64.79492188 144.98667969 64.21484375 145.66085937 63.6171875 146.35546875 C55.39780682 155.26869325 44.73157644 161.66216007 33.625 166.3125 C32.96508057 166.59101807 32.30516113 166.86953613 31.62524414 167.15649414 C22.15251758 170.88428997 12.5356297 171.65719273 2.4375 171.5625 C0.85328247 171.55126099 0.85328247 171.55126099 -0.76293945 171.53979492 C-25.70765699 171.19470609 -45.88153126 160.88860449 -63.17578125 143.1328125 C-77.44449032 126.70217781 -84.24048485 106.69569974 -84.125 85.0625 C-84.11855469 83.79196777 -84.11210937 82.52143555 -84.10546875 81.21240234 C-83.71319613 60.97165122 -76.23495671 43.38252869 -62.625 28.3125 C-61.97273438 27.56742187 -61.32046875 26.82234375 -60.6484375 26.0546875 C-44.81725739 9.0376512 -23.01309725 0.12884242 0 0 Z M23.55419922 38.54548645 C22.93561035 39.18121078 22.31702148 39.81693512 21.6796875 40.47192383 C20.97215332 41.18629105 20.26461914 41.90065826 19.53564453 42.63667297 C18.78138184 43.4230162 18.02711914 44.20935944 17.25 45.01953125 C16.46608887 45.81526047 15.68217773 46.61098969 14.87451172 47.43083191 C12.36262155 49.98405662 9.8681079 52.55344268 7.375 55.125 C4.87942882 57.68324863 2.38034343 60.23787359 -0.12451172 62.78703308 C-1.68423026 64.37597631 -3.23815158 65.97063514 -4.78564453 67.57148743 C-5.49317871 68.29531113 -6.20071289 69.01913483 -6.9296875 69.76489258 C-7.54827637 70.40300369 -8.16686523 71.04111481 -8.80419922 71.69856262 C-12.34900064 74.84063482 -15.31106454 75.62182864 -20 75.6875 C-21.37285156 75.73003906 -21.37285156 75.73003906 -22.7734375 75.7734375 C-29.90404099 74.6208194 -35.10689565 68.20631403 -40.12109375 63.3828125 C-42.895672 60.33924397 -42.895672 60.33924397 -46.625 59.3125 C-47.44332722 61.20582534 -48.25442268 63.10227733 -49.0625 65 C-49.51496094 66.05574219 -49.96742188 67.11148438 -50.43359375 68.19921875 C-54.6979768 79.34254101 -54.30737548 94.73244307 -49.87890625 105.71875 C-42.65628042 120.65901029 -32.5084793 131.75688951 -16.75 137.6875 C-2.25719335 142.66264258 12.59254151 141.31061878 26.375 134.921875 C40.93248468 127.40578237 49.79529122 115.5960532 55.12109375 100.1484375 C59.06453795 85.62568439 55.99829036 71.25414853 49.16796875 58.234375 C44.26492289 50.2442262 36.36674519 41.17778584 27.47827148 37.53520203 C25.30241799 37.07625829 25.30241799 37.07625829 23.55419922 38.54548645 Z " fill="#ECE8DC" transform="translate(341.625,278.6875)"/>
<path d="M0 0 C-1.44894154 4.87371246 -3.50118793 9.34888628 -5.68359375 13.92578125 C-7.37418568 17.87384014 -8.69152806 21.91208315 -10 26 C-11.30195313 26.03738281 -12.60390625 26.07476562 -13.9453125 26.11328125 C-15.67190257 26.17896674 -17.39846381 26.24541318 -19.125 26.3125 C-19.9809375 26.33505859 -20.836875 26.35761719 -21.71875 26.38085938 C-26.78388498 26.59515355 -30.74638721 26.9681696 -35 30 C-38.57579735 35.37682854 -38.47087503 40.41489439 -38.51171875 46.6484375 C-38.52966995 47.66096588 -38.54762115 48.67349426 -38.56611633 49.71670532 C-38.62009958 52.93609511 -38.65407707 56.15533763 -38.6875 59.375 C-38.7206836 61.56382252 -38.75517422 63.75262564 -38.79101562 65.94140625 C-38.87581902 71.29413875 -38.94421949 76.6468906 -39 82 C-41.22855574 82.0814222 -43.45797655 82.13938079 -45.6875 82.1875 C-47.54955078 82.23970703 -47.54955078 82.23970703 -49.44921875 82.29296875 C-55.2513604 81.81424419 -55.2513604 81.81424419 -58 79 C-58.77369693 75.55157951 -58.72389575 72.15095585 -58.69921875 68.62890625 C-58.70637405 67.59620102 -58.71352936 66.56349579 -58.72090149 65.49949646 C-58.7286943 63.30802272 -58.7236331 61.11647167 -58.70678711 58.92504883 C-58.68774604 55.60539441 -58.72673213 52.29003413 -58.77148438 48.97070312 C-58.82558873 35.28579079 -57.93681867 25.8021216 -48.8125 15.0625 C-41.77493895 8.72249456 -33.31192967 6.22219355 -24 6 C-23.67 4.68 -23.34 3.36 -23 2 C-23.66 1.67 -24.32 1.34 -25 1 C-21.58340864 0.83176554 -18.16671582 0.66568609 -14.75 0.5 C-13.78191406 0.45230469 -12.81382812 0.40460938 -11.81640625 0.35546875 C-10.41455078 0.28779297 -10.41455078 0.28779297 -8.984375 0.21875 C-8.12553711 0.17685547 -7.26669922 0.13496094 -6.38183594 0.09179688 C-4.25591553 0.00986308 -2.1274987 0 0 0 Z " fill="#365889" transform="translate(234,305)"/>
<path d="M0 0 C0.83805176 0.00273926 1.67610352 0.00547852 2.53955078 0.00830078 C11.22892045 0.15370858 18.85861417 2.00825494 26.875 5.3125 C22.66327269 10.33324372 18.2771113 15.07024032 13.6484375 19.70703125 C12.97833649 20.38046066 12.30823547 21.05389008 11.61782837 21.74772644 C10.21234681 23.15823569 8.80553943 24.567425 7.39746094 25.9753418 C5.24385063 28.13115566 3.09838643 30.2948662 0.953125 32.45898438 C-0.41878127 33.83382203 -1.79116058 35.20818784 -3.1640625 36.58203125 C-3.80268219 37.22783646 -4.44130188 37.87364166 -5.09927368 38.53901672 C-5.70024872 39.13691513 -6.30122375 39.73481354 -6.92041016 40.35083008 C-7.44414215 40.87598709 -7.96787415 41.4011441 -8.50747681 41.94221497 C-11.98844458 44.89111738 -14.98764902 45.62430181 -19.5 45.6875 C-20.87285156 45.73003906 -20.87285156 45.73003906 -22.2734375 45.7734375 C-28.62221873 44.74719615 -33.34876225 39.54020821 -37.9375 35.3125 C-38.52208984 34.79171875 -39.10667969 34.2709375 -39.70898438 33.734375 C-44.626962 29.22100503 -44.626962 29.22100503 -45.125 25.3125 C-38.83358344 13.89474403 -26.92111968 6.87531691 -15.125 2.3125 C-14.21621094 1.94511719 -13.30742187 1.57773437 -12.37109375 1.19921875 C-8.186026 0.0560053 -4.31921913 -0.02841025 0 0 Z " fill="#36598A" transform="translate(341.125,309.6875)"/>
<path d="M0 0 C5.49516915 -0.07480335 10.99003435 -0.12890749 16.4855957 -0.16479492 C18.35055716 -0.17977389 20.21548405 -0.20016424 22.08032227 -0.22631836 C49.1006035 -0.59546766 49.1006035 -0.59546766 59 9 C65.79212992 16.31697632 68.11185155 24.23036701 69 34 C73.43593314 33.49303621 75.62433768 31.82825762 79 29 C79.66 29 80.32 29 81 29 C79.60678155 33.87626457 77.06141704 36.07577973 73 39 C70.04079709 39.9895739 67.34139404 40.11757304 64.234375 40.09765625 C63.34492188 40.09443359 62.45546875 40.09121094 61.5390625 40.08789062 C60.61867188 40.07951172 59.69828125 40.07113281 58.75 40.0625 C57.34621094 40.05573242 57.34621094 40.05573242 55.9140625 40.04882812 C53.60930959 40.03706918 51.30468773 40.02063426 49 40 C48.94392578 38.91332031 48.94392578 38.91332031 48.88671875 37.8046875 C48.44801092 29.92874184 48.44801092 29.92874184 45 23 C39.44935124 20.02213804 34.79819707 19.53575337 28.56640625 19.48828125 C27.2495005 19.46135445 27.2495005 19.46135445 25.9059906 19.43388367 C23.12487471 19.38006321 20.34392763 19.34597636 17.5625 19.3125 C15.66729436 19.27930192 13.77211092 19.24480997 11.87695312 19.20898438 C7.25142445 19.12435325 2.62594338 19.057408 -2 19 C-1.85820962 16.77057252 -1.71140302 14.54146372 -1.5625 12.3125 C-1.48128906 11.07113281 -1.40007812 9.82976562 -1.31640625 8.55078125 C-1.05508683 5.61819663 -0.65201621 2.86558383 0 0 Z " fill="#365889" transform="translate(328,198)"/>
<path d="M0 0 C0.33 0 0.66 0 1 0 C1.21517374 12.18545456 1.29658079 23.98396121 -1 36 C-1.66386719 36.08636719 -2.32773437 36.17273438 -3.01171875 36.26171875 C-8.8133093 37.18489155 -12.34401526 38.04673035 -16 43 C-16.88265137 45.77947382 -17.17119068 48.42381364 -17.31640625 51.328125 C-17.37924805 52.52695313 -17.37924805 52.52695313 -17.44335938 53.75 C-17.48267578 54.575 -17.52199219 55.4 -17.5625 56.25 C-17.62727539 57.51070312 -17.62727539 57.51070312 -17.69335938 58.796875 C-17.79908543 60.86440671 -17.90001295 62.93218281 -18 65 C-19.22976563 65.47050781 -20.45953125 65.94101563 -21.7265625 66.42578125 C-23.35943523 67.0545311 -24.99224438 67.68344609 -26.625 68.3125 C-27.83736328 68.7755957 -27.83736328 68.7755957 -29.07421875 69.24804688 C-32.61212497 70.61431147 -35.9396384 71.96693798 -39.2734375 73.79296875 C-42 75 -42 75 -44.55078125 75 C-47.88863467 73.63717628 -49.72858294 71.61887687 -52.1875 69 C-55.25987953 65.55497294 -55.25987953 65.55497294 -59 63 C-58.39030912 59.70179273 -57.24502886 57.69301158 -55.1875 55.0625 C-54.65253906 54.37285156 -54.11757813 53.68320313 -53.56640625 52.97265625 C-52.79103516 51.99619141 -52.79103516 51.99619141 -52 51 C-51.21625 50.01 -50.4325 49.02 -49.625 48 C-49.08875 47.34 -48.5525 46.68 -48 46 C-45.36 47.98 -42.72 49.96 -40 52 C-39.01 51.505 -39.01 51.505 -38 51 C-37.10425212 47.73691845 -36.36857479 44.4763639 -35.67578125 41.16601562 C-33.68357163 32.39543427 -28.6224956 26.28856359 -21.1875 21.3125 C-14.27943873 17.1987107 -7.91807111 16.75256028 0 17 C0 11.39 0 5.78 0 0 Z " fill="#EDB72F" transform="translate(327,181)"/>
<path d="M0 0 C-0.65226562 0.56847656 -1.30453125 1.13695312 -1.9765625 1.72265625 C-4.6839525 4.11458341 -7.348771 6.54603506 -10 9 C-10.66 9.59554688 -11.32 10.19109375 -12 10.8046875 C-15.07333298 13.89279612 -16.48090982 16.43741204 -16.9375 20.8125 C-16.50022866 28.55338458 -9.98691997 33.18579309 -4.703125 38.1640625 C-3 40 -3 40 -3 42 C-6.41065139 43.03974499 -9.52264842 43.11508506 -13.078125 43.09765625 C-14.81835938 43.09282227 -14.81835938 43.09282227 -16.59375 43.08789062 C-17.8003125 43.07951172 -19.006875 43.07113281 -20.25 43.0625 C-21.47203125 43.05798828 -22.6940625 43.05347656 -23.953125 43.04882812 C-26.96879946 43.03704815 -29.98437498 43.02059853 -33 43 C-32.01 42.34 -31.02 41.68 -30 41 C-30.52400391 40.09507812 -30.52400391 40.09507812 -31.05859375 39.171875 C-31.74115234 37.97304688 -31.74115234 37.97304688 -32.4375 36.75 C-32.88996094 35.96109375 -33.34242188 35.1721875 -33.80859375 34.359375 C-37.21251401 27.61849684 -37.10277857 18.68322848 -35.3984375 11.4453125 C-34.17926084 8.18185982 -32.56170748 5.1098349 -31 2 C-29.11667969 1.92652344 -29.11667969 1.92652344 -27.1953125 1.8515625 C-15.3533388 1.39976095 -15.3533388 1.39976095 -3.71484375 -0.6953125 C-2 -1 -2 -1 0 0 Z " fill="#ECB730" transform="translate(237,263)"/>
<path d="M0 0 C-3.05342885 3.10297275 -6.11345435 6.19924231 -9.1796875 9.28955078 C-10.22122741 10.34113041 -11.26096293 11.39450046 -12.29882812 12.44970703 C-13.79343154 13.96864785 -15.29446706 15.48097064 -16.796875 16.9921875 C-17.69760742 17.90339355 -18.59833984 18.81459961 -19.52636719 19.75341797 C-24.30932633 24.09735698 -27.98255339 24.42041428 -34.29296875 24.3359375 C-38.17726108 23.85390411 -40.07306391 22.53140419 -43 20 C-38.3151511 9.95747816 -32.5522934 3.8358869 -22.375 -0.875 C-15.95028158 -3.07738826 -5.66767431 -3.77844954 0 0 Z " fill="#3B6DA9" transform="translate(353,331)"/>
</svg>
